<svg width="80" height="38" viewBox="0 0 80 38" fill="none" xmlns="http://www.w3.org/2000/svg">
<path fill-rule="evenodd" clip-rule="evenodd" d="M37.2186 27.6601C37.6821 27.6601 38.1129 27.754 38.5108 27.9418C38.9087 28.1296 39.2039 28.4202 39.3963 28.8137L38.1238 29.3503C38.0014 29.1177 37.8308 28.9255 37.6122 28.7734C37.3935 28.6214 37.1618 28.5454 36.9169 28.5454C36.3309 28.5454 35.8673 28.7958 35.5263 29.2966C35.1852 29.7974 35.0147 30.4234 35.0147 31.1746C35.0147 31.8631 35.1152 32.4288 35.3164 32.8714C35.5175 33.3141 35.8367 33.5354 36.274 33.5354C36.8863 33.5354 37.306 33.2425 37.5335 32.6568C37.7609 32.0711 37.8745 31.4339 37.8745 30.7453V30.1551L39.4094 29.5917V33.0794C39.4094 33.2046 39.4379 33.3141 39.4947 33.408C39.5516 33.5019 39.6369 33.5489 39.7505 33.5489C39.9692 33.5489 40.1922 33.3923 40.4196 33.0794L40.6689 33.3342C40.5377 33.6472 40.3299 33.9133 40.0457 34.1323C39.7614 34.3515 39.4576 34.461 39.134 34.461C38.7141 34.461 38.408 34.3157 38.2156 34.025C38.0232 33.7344 37.927 33.361 37.927 32.905H37.8745C37.6647 33.3879 37.3848 33.7791 37.0349 34.0787C36.6851 34.3783 36.2784 34.5281 35.8149 34.5281C35.1152 34.5281 34.5751 34.2665 34.1947 33.7434C33.8143 33.2202 33.624 32.5383 33.624 31.6977C33.624 30.9823 33.7749 30.3161 34.0766 29.699C34.3784 29.082 34.8026 28.5879 35.3491 28.2168C35.8958 27.8457 36.5189 27.6601 37.2186 27.6601ZM44.2765 29.471C43.9092 29.8913 43.5922 30.4167 43.3254 31.0472C43.0587 31.6776 42.9253 32.2522 42.9253 32.7709C42.9253 33.2716 43.0565 33.6852 43.3189 34.0116C43.5813 34.338 43.9529 34.5012 44.4339 34.5012C44.8188 34.5012 45.1883 34.4029 45.5425 34.2062C45.8967 34.0094 46.2007 33.7456 46.4542 33.4147L46.2575 33.1733C45.9601 33.37 45.6802 33.4684 45.4179 33.4684C45.0243 33.4684 44.7247 33.3297 44.5192 33.0525C44.3137 32.7753 44.2109 32.431 44.2109 32.0197C44.2109 31.3489 44.3902 30.6827 44.7488 30.021C45.1074 29.3592 45.5403 28.7869 46.0476 28.304L45.8114 28.0491C45.2255 28.4426 44.6657 28.6393 44.1322 28.6393C43.7912 28.6393 43.4828 28.503 43.2074 28.2302C42.9319 27.9575 42.746 27.6378 42.6498 27.2711L41.3904 28.7198C41.4254 28.845 41.5128 28.9702 41.6528 29.0954C41.7927 29.2206 41.8758 29.2966 41.902 29.3234L41.023 31.1746L41.5609 31.416L42.4137 29.5515C42.641 29.6409 42.8903 29.6856 43.1614 29.6856C43.5813 29.6856 43.9398 29.5962 44.2372 29.4174L44.2765 29.471ZM53.4466 30.9197C53.4466 31.4652 53.2804 32.0197 52.9481 32.583C52.6157 33.1464 52.1872 33.6114 51.6625 33.9781C51.1377 34.3448 50.6086 34.5281 50.0751 34.5281C49.3142 34.5281 48.7216 34.2799 48.2975 33.7836C47.8733 33.2873 47.6612 32.6501 47.6612 31.8721V22.536L49.2355 21.9726V32.1672C49.2355 32.5875 49.3404 32.9564 49.5503 33.2738C49.7602 33.5913 50.0663 33.7501 50.4686 33.7501C50.8009 33.7501 51.0874 33.6472 51.3279 33.4415C51.5684 33.2359 51.7499 32.9721 51.8723 32.6501C51.9948 32.3282 52.056 32.0062 52.056 31.6843C52.056 31.2371 51.9489 30.7923 51.7346 30.3496C51.5203 29.907 51.2295 29.5358 50.8622 29.2362C50.4949 28.9367 50.0969 28.7734 49.6684 28.7466L51.0852 27.6869C51.4875 27.8122 51.8702 28.0447 52.2331 28.3845C52.5961 28.7243 52.889 29.12 53.1121 29.5716C53.3351 30.0232 53.4466 30.4726 53.4466 30.9197ZM56.2409 26.2516L55.4144 26.5199L54.8765 23.7164L56.7001 23.086L56.2409 26.2516ZM56.6607 33.133C56.6607 33.2671 56.6913 33.3745 56.7525 33.455C56.8137 33.5354 56.8968 33.5757 57.0018 33.5757C57.2204 33.5757 57.4435 33.4192 57.6709 33.1062L57.907 33.361C57.7146 33.7188 57.4675 33.9915 57.1658 34.1793C56.864 34.3671 56.5645 34.461 56.2671 34.461C55.4713 34.461 55.0733 33.9915 55.0733 33.0525V28.2235L56.6607 27.6601V33.133ZM60.6751 27.1101C61.2698 27.1101 61.5672 27.3516 61.5672 27.8345C61.5584 28.0491 61.5147 28.2369 61.436 28.3978C61.3573 28.5589 61.272 28.702 61.1802 28.8271C61.0883 28.9523 61.0249 29.0373 60.9899 29.082C61.1037 29.2162 61.3091 29.4084 61.6065 29.6588C61.8776 29.8824 62.0963 30.0858 62.2625 30.2691C62.4286 30.4525 62.5686 30.685 62.6822 30.9667C62.796 31.2484 62.8528 31.5904 62.8528 31.9928C62.8528 32.4579 62.7413 32.8849 62.5183 33.2738C62.2952 33.6629 61.9913 33.9692 61.6065 34.1927C61.2217 34.4163 60.7975 34.5281 60.334 34.5281C59.9929 34.5281 59.6387 34.4655 59.2713 34.3403C58.904 34.2151 58.6286 34.0407 58.4449 33.8171L59.4025 32.5025C59.5862 32.7887 59.8048 33.0436 60.0585 33.2671C60.3121 33.4907 60.5658 33.6025 60.8194 33.6025C61.143 33.6025 61.4229 33.4907 61.659 33.2671C61.8951 33.0436 62.0132 32.7619 62.0132 32.4221C62.0132 32.1449 61.8995 31.8721 61.6721 31.6038C61.4447 31.3356 61.1211 31.0091 60.7013 30.6246C60.4127 30.3653 60.2291 30.1909 60.1503 30.1015L59.2583 31.4294L58.786 31.1075L59.8092 29.6588C59.6343 29.3369 59.5468 28.9657 59.5468 28.5454C59.5468 28.1341 59.6431 27.792 59.8355 27.5193C60.0279 27.2465 60.3077 27.1101 60.6751 27.1101ZM60.6751 27.6601C60.5702 27.6601 60.5002 27.6914 60.4652 27.754C60.4302 27.8166 60.4127 27.906 60.4127 28.0223C60.4127 28.1207 60.4302 28.219 60.4652 28.3174C60.5002 28.4158 60.5395 28.5141 60.5832 28.6125C60.6794 28.5409 60.7626 28.4336 60.8325 28.2906C60.9025 28.1475 60.9375 28.0223 60.9375 27.915C60.9375 27.8434 60.9134 27.7831 60.8653 27.7339C60.8172 27.6847 60.7538 27.6601 60.6751 27.6601ZM67.3263 27.8211C66.7491 28.2414 66.2965 28.7176 65.9685 29.2497C65.6405 29.7818 65.4766 30.4055 65.4766 31.1209C65.4766 31.5144 65.5509 31.9124 65.6996 32.3148C65.8483 32.7172 66.0669 33.0503 66.3555 33.3141C66.6441 33.5779 66.9896 33.7098 67.3919 33.7098C67.8991 33.7098 68.3081 33.522 68.6185 33.1464C68.929 32.7709 69.0842 32.3058 69.0842 31.7513C69.0842 31.3311 68.9771 30.9041 68.7628 30.4703C68.5485 30.0366 68.2621 29.67 67.9035 29.3704C67.545 29.0708 67.1601 28.9032 66.7491 28.8674C66.9327 28.6617 67.1317 28.4739 67.346 28.304C67.5603 28.1341 67.8292 27.9284 68.1528 27.6869C68.7825 27.9016 69.2832 28.2995 69.6549 28.8808C70.0266 29.462 70.2124 30.1015 70.2124 30.799C70.2124 31.416 70.0791 32.0152 69.8124 32.5965C69.5456 33.1777 69.1608 33.6494 68.6579 34.0116C68.155 34.3738 67.5712 34.5549 66.9065 34.5549C66.3555 34.5549 65.8504 34.423 65.3913 34.1592C64.9321 33.8954 64.567 33.5332 64.2959 33.0726C64.0247 32.6121 63.8892 32.1046 63.8892 31.5501C63.8892 30.5933 64.1844 29.7527 64.7747 29.0283C65.3651 28.304 66.1325 27.7987 67.0771 27.5125L67.3263 27.8211ZM75.0795 21.8652C75.4206 21.8652 75.7792 21.9703 76.1552 22.1805C76.5313 22.3906 76.8287 22.6701 77.0474 23.0189L75.8273 23.703C75.7136 23.3453 75.5496 23.0524 75.3353 22.8244C75.1211 22.5963 74.8653 22.4823 74.5679 22.4823C74.1744 22.4823 73.8966 22.6343 73.7348 22.9384C73.573 23.2424 73.4922 23.5957 73.4922 23.9981V27.6601H75.8929L75.4862 28.5454H73.4922V36.1377L71.9179 36.8085V28.5454H71.0258L71.3931 27.6601H71.9179V25.8492C71.9179 25.1606 72.0206 24.5145 72.2262 23.9109C72.4317 23.3073 72.7706 22.8154 73.2429 22.4353C73.7151 22.0553 74.3274 21.8652 75.0795 21.8652ZM78.2805 28.5454V33.133C78.2805 33.2582 78.3155 33.3633 78.3855 33.4482C78.4554 33.5332 78.5473 33.5757 78.6609 33.5757C78.8709 33.5757 79.107 33.4192 79.3694 33.1062L79.6055 33.361C79.4481 33.683 79.2513 33.9244 79.0152 34.0854C78.779 34.2464 78.5517 34.3537 78.333 34.4074C78.1144 34.461 78.005 34.4789 78.005 34.461C77.1304 34.461 76.6931 33.9915 76.6931 33.0525V28.5454H75.7617L76.1684 27.6601H76.6931V24.6151L78.2805 24.0652V27.6601H79.9991L79.6055 28.5454H78.2805Z" fill="white"/>
<path d="M13.7253 0.000976562C13.7253 0.000976562 23.157 9.91472 15.4075 22.1252C6.52798 22.3138 2.10181 4.9927 13.7253 0.000976562Z" fill="url(#paint0_linear_139_2)"/>
<path fill-rule="evenodd" clip-rule="evenodd" d="M6.56323 35.0859C15.0627 33.4691 20.9717 4.14504 31.7142 11.0484C19.6705 6.97502 15.1181 40.8088 6.56323 35.0859Z" fill="white"/>
<path fill-rule="evenodd" clip-rule="evenodd" d="M0.158936 23.4309C0.158936 23.4309 4.79725 15.7167 15.5802 21.2847C15.5802 21.2847 10.0044 31.3442 0.158936 23.4309Z" fill="#FF0098"/>
<path fill-rule="evenodd" clip-rule="evenodd" d="M15.4678 22.1598C15.4678 22.1598 19.5964 7.97025 4.85267 3.16895C4.85267 3.16895 -1.47286 19.0517 15.4678 22.1598Z" fill="#34D8FD"/>
<path fill-rule="evenodd" clip-rule="evenodd" d="M8.10017 4.52051C4.64245 11.5041 8.81616 21.4435 15.5542 21.3004C15.6078 21.2159 15.6605 21.1317 15.7125 21.0474C16.2655 17.9488 16.943 9.14427 8.10017 4.52051Z" fill="#79F2FD"/>
<path fill-rule="evenodd" clip-rule="evenodd" d="M3.39917 27.7784C3.39917 27.7784 5.92717 19.2852 15.4486 22.1436C15.4486 22.1436 12.904 31.0996 3.39917 27.7784V27.7784Z" fill="#FF009C"/>
<path d="M15.4509 22.1375C8.99549 20.2128 5.76259 23.5127 4.354 25.8235C10.2938 28.2281 14.134 23.97 15.4509 22.1375Z" fill="url(#paint1_linear_139_2)"/>
<path fill-rule="evenodd" clip-rule="evenodd" d="M25.8624 15.9445C26.3303 16.4128 26.5643 17.0338 26.5643 17.8075C26.5643 19.2937 25.8873 20.6477 24.5332 21.8693C23.1793 23.0909 21.6361 24.0783 19.9037 24.8316L20.1427 25.6562C21.4768 25.1472 22.8408 24.8927 24.2346 24.8927C25.051 24.8927 25.8325 25.0657 26.5792 25.4119C27.3259 25.758 27.9382 26.2466 28.4161 26.8778C28.894 27.509 29.1329 28.2216 29.1329 29.0156C29.1329 31.1941 28.1373 32.9502 26.1461 34.2837C24.1549 35.6173 21.875 36.5589 19.3064 37.1087L19.4856 37.8416C21.2976 37.8009 23.1992 37.4344 25.1904 36.7422C27.1815 36.0499 28.8691 35.0269 30.2529 33.6729C31.6368 32.319 32.3288 30.6953 32.3288 28.8018C32.3288 27.1527 31.7364 25.9056 30.5516 25.0607C29.3669 24.2157 27.9282 23.7933 26.2357 23.7933C25.499 23.7933 24.5631 23.9053 23.4281 24.1292L23.3684 24.0071C24.9614 23.1316 26.4199 22.0169 27.7441 20.663C29.0682 19.309 29.7303 17.9602 29.7303 16.6164C29.7303 15.6799 29.4017 14.9571 28.7446 14.4481C28.0875 13.9391 27.2811 13.6846 26.3253 13.6846C25.4508 13.6846 24.6191 13.7816 23.8303 13.9758C23.4248 14.4333 23.0285 14.9281 22.6406 15.4531C23.036 15.3124 23.4677 15.2421 23.9359 15.2421C24.7523 15.2421 25.3945 15.4763 25.8624 15.9445V15.9445Z" fill="white"/>
<defs>
<linearGradient id="paint0_linear_139_2" x1="6.71167" y1="0.000976562" x2="18.4638" y2="0.000976562" gradientUnits="userSpaceOnUse">
<stop stop-color="white"/>
<stop offset="1" stop-color="#0B74F4"/>
</linearGradient>
<linearGradient id="paint1_linear_139_2" x1="57.585" y1="-47.4658" x2="62.1308" y2="-45.6696" gradientUnits="userSpaceOnUse">
<stop stop-color="#FE70C6"/>
<stop offset="0.29" stop-color="#FE73C7"/>
<stop offset="1" stop-color="white"/>
</linearGradient>
</defs>
</svg>
