<svg width="409" height="190" viewBox="0 0 409 190" fill="none" xmlns="http://www.w3.org/2000/svg">
<path fill-rule="evenodd" clip-rule="evenodd" d="M190.28 138.3C192.649 138.3 194.852 138.769 196.886 139.708C198.921 140.647 200.43 142.1 201.413 144.068L194.908 146.751C194.282 145.588 193.41 144.627 192.292 143.866C191.174 143.106 189.989 142.726 188.737 142.726C185.741 142.726 183.371 143.978 181.628 146.482C179.884 148.986 179.012 152.116 179.012 155.872C179.012 159.315 179.526 162.143 180.555 164.356C181.583 166.569 183.215 167.676 185.451 167.676C188.581 167.676 190.727 166.212 191.89 163.283C193.052 160.355 193.633 157.169 193.633 153.726V150.775L201.48 147.958V165.396C201.48 166.022 201.626 166.57 201.916 167.039C202.207 167.509 202.643 167.743 203.224 167.743C204.342 167.743 205.482 166.961 206.645 165.396L207.919 166.67C207.248 168.235 206.186 169.565 204.733 170.661C203.28 171.756 201.726 172.304 200.072 172.304C197.926 172.304 196.361 171.578 195.377 170.124C194.393 168.671 193.902 166.804 193.902 164.524H193.633C192.56 166.939 191.129 168.895 189.341 170.393C187.552 171.891 185.473 172.639 183.103 172.639C179.526 172.639 176.765 171.332 174.82 168.716C172.875 166.1 171.902 162.691 171.902 158.488C171.902 154.911 172.674 151.579 174.216 148.494C175.759 145.409 177.928 142.939 180.722 141.083C183.517 139.227 186.703 138.3 190.28 138.3ZM226.363 147.354C224.485 149.456 222.865 152.082 221.501 155.235C220.137 158.387 219.455 161.26 219.455 163.853C219.455 166.357 220.126 168.425 221.467 170.057C222.809 171.689 224.709 172.505 227.168 172.505C229.136 172.505 231.025 172.014 232.836 171.03C234.646 170.046 236.201 168.727 237.497 167.073L236.491 165.865C234.971 166.849 233.54 167.341 232.198 167.341C230.186 167.341 228.655 166.648 227.604 165.262C226.554 163.876 226.028 162.154 226.028 160.098C226.028 156.744 226.945 153.413 228.778 150.104C230.611 146.795 232.824 143.933 235.418 141.519L234.211 140.245C231.215 142.212 228.353 143.196 225.625 143.196C223.882 143.196 222.306 142.514 220.897 141.15C219.489 139.786 218.539 138.188 218.047 136.354L211.608 143.598C211.787 144.224 212.234 144.85 212.95 145.476C213.665 146.102 214.09 146.482 214.224 146.616L209.73 155.872L212.48 157.079L216.84 147.757C218.002 148.204 219.277 148.427 220.662 148.427C222.809 148.427 224.642 147.98 226.162 147.086L226.363 147.354ZM273.245 154.598C273.245 157.325 272.396 160.098 270.697 162.914C268.998 165.731 266.807 168.056 264.124 169.889C261.441 171.723 258.736 172.639 256.008 172.639C252.118 172.639 249.089 171.399 246.921 168.917C244.752 166.436 243.668 163.25 243.668 159.36V112.679L251.716 109.862V160.835C251.716 162.937 252.253 164.781 253.326 166.368C254.399 167.956 255.964 168.749 258.02 168.749C259.719 168.749 261.184 168.235 262.414 167.207C263.643 166.178 264.571 164.859 265.197 163.25C265.823 161.64 266.136 160.03 266.136 158.421C266.136 156.185 265.588 153.96 264.493 151.747C263.397 149.534 261.911 147.678 260.033 146.18C258.155 144.682 256.12 143.866 253.929 143.732L261.173 138.434C263.23 139.06 265.186 140.222 267.041 141.921C268.897 143.62 270.395 145.599 271.535 147.857C272.675 150.115 273.245 152.362 273.245 154.598ZM287.531 131.257L283.306 132.599L280.556 118.581L289.879 115.429L287.531 131.257ZM289.677 165.664C289.677 166.335 289.834 166.871 290.147 167.274C290.46 167.676 290.885 167.877 291.421 167.877C292.539 167.877 293.679 167.095 294.842 165.53L296.049 166.804C295.066 168.593 293.802 169.957 292.26 170.896C290.717 171.835 289.186 172.304 287.665 172.304C283.597 172.304 281.562 169.957 281.562 165.262V141.117L289.677 138.3V165.664ZM310.201 135.55C313.242 135.55 314.762 136.757 314.762 139.172C314.717 140.245 314.493 141.184 314.091 141.988C313.689 142.793 313.253 143.509 312.783 144.135C312.314 144.761 311.99 145.186 311.811 145.409C312.392 146.08 313.443 147.041 314.963 148.293C316.349 149.411 317.467 150.428 318.316 151.345C319.166 152.261 319.881 153.424 320.463 154.832C321.044 156.241 321.335 157.951 321.335 159.963C321.335 162.288 320.764 164.423 319.624 166.368C318.484 168.313 316.93 169.845 314.963 170.963C312.996 172.081 310.827 172.639 308.457 172.639C306.713 172.639 304.902 172.326 303.024 171.701C301.147 171.074 299.738 170.203 298.799 169.085L303.695 162.512C304.634 163.943 305.752 165.217 307.049 166.335C308.345 167.453 309.642 168.012 310.939 168.012C312.593 168.012 314.024 167.453 315.231 166.335C316.439 165.217 317.042 163.809 317.042 162.109C317.042 160.723 316.461 159.36 315.298 158.018C314.136 156.677 312.481 155.045 310.335 153.122C308.86 151.825 307.921 150.953 307.518 150.507L302.957 157.146L300.543 155.536L305.774 148.293C304.88 146.683 304.433 144.828 304.433 142.726C304.433 140.669 304.925 138.959 305.908 137.595C306.892 136.232 308.323 135.55 310.201 135.55ZM310.201 138.3C309.665 138.3 309.307 138.456 309.128 138.769C308.949 139.082 308.859 139.529 308.859 140.11C308.859 140.603 308.949 141.094 309.128 141.586C309.307 142.078 309.508 142.57 309.732 143.061C310.223 142.704 310.648 142.167 311.006 141.452C311.364 140.737 311.543 140.11 311.543 139.574C311.543 139.216 311.419 138.914 311.173 138.668C310.928 138.423 310.603 138.3 310.201 138.3ZM344.205 139.104C341.254 141.206 338.94 143.587 337.263 146.247C335.587 148.908 334.749 152.027 334.749 155.604C334.749 157.571 335.129 159.561 335.889 161.573C336.649 163.585 337.767 165.251 339.242 166.569C340.718 167.889 342.484 168.548 344.541 168.548C347.134 168.548 349.225 167.609 350.812 165.731C352.399 163.853 353.193 161.528 353.193 158.756C353.193 156.654 352.645 154.52 351.55 152.351C350.454 150.182 348.99 148.349 347.156 146.851C345.323 145.353 343.356 144.515 341.254 144.336C342.193 143.308 343.211 142.368 344.306 141.519C345.402 140.669 346.776 139.641 348.431 138.434C351.65 139.507 354.21 141.496 356.11 144.403C358.011 147.309 358.961 150.506 358.961 153.994C358.961 157.079 358.279 160.075 356.915 162.981C355.552 165.888 353.584 168.246 351.013 170.057C348.442 171.868 345.457 172.774 342.059 172.774C339.242 172.774 336.66 172.114 334.313 170.795C331.965 169.476 330.098 167.665 328.712 165.362C327.326 163.06 326.633 160.522 326.633 157.75C326.633 152.965 328.142 148.763 331.16 145.141C334.179 141.519 338.102 138.993 342.931 137.562L344.205 139.104ZM383.844 109.325C385.587 109.325 387.421 109.851 389.343 110.902C391.266 111.952 392.786 113.35 393.904 115.094L387.667 118.514C387.085 116.725 386.247 115.261 385.151 114.121C384.056 112.981 382.748 112.41 381.228 112.41C379.216 112.41 377.796 113.171 376.969 114.691C376.142 116.211 375.728 117.978 375.728 119.99V138.3H388.002L385.923 142.726H375.728V180.688L367.68 184.041V142.726H363.119L364.997 138.3H367.68V129.245C367.68 125.802 368.205 122.572 369.256 119.553C370.307 116.535 372.039 114.076 374.454 112.176C376.868 110.276 379.998 109.325 383.844 109.325ZM400.209 142.726V165.664C400.209 166.29 400.388 166.816 400.745 167.24C401.103 167.665 401.573 167.877 402.154 167.877C403.227 167.877 404.434 167.095 405.776 165.53L406.983 166.804C406.178 168.414 405.172 169.621 403.965 170.426C402.757 171.231 401.595 171.767 400.477 172.036C399.359 172.304 398.8 172.394 398.8 172.304C394.329 172.304 392.093 169.957 392.093 165.262V142.726H387.331L389.41 138.3H392.093V123.075L400.209 120.325V138.3H408.995L406.983 142.726H400.209Z" fill="black"/>
<path d="M70.1701 0.00479126C70.1701 0.00479126 118.39 49.5735 78.7702 110.626C33.3739 111.569 10.7451 24.9634 70.1701 0.00479126Z" fill="url(#paint0_linear_27_2)"/>
<path fill-rule="evenodd" clip-rule="evenodd" d="M33.5547 175.429C77.0081 167.345 107.218 20.7252 162.139 55.242C100.566 34.8751 77.2916 204.044 33.5547 175.429Z" fill="black"/>
<path fill-rule="evenodd" clip-rule="evenodd" d="M0.812798 117.155C0.812798 117.155 24.5262 78.5846 79.6538 106.424C79.6538 106.424 51.1477 156.722 0.812798 117.155Z" fill="#FF0098"/>
<path fill-rule="evenodd" clip-rule="evenodd" d="M79.0791 110.798C79.0791 110.798 100.186 39.85 24.8091 15.8435C24.8091 15.8435 -7.5302 95.2572 79.0791 110.798Z" fill="#34D8FD"/>
<path fill-rule="evenodd" clip-rule="evenodd" d="M41.4115 22.601C23.7339 57.5191 45.072 107.216 79.5202 106.501C79.7943 106.078 80.0639 105.657 80.3297 105.236C83.1569 89.7426 86.6206 45.7198 41.4115 22.601Z" fill="#79F2FD"/>
<path fill-rule="evenodd" clip-rule="evenodd" d="M17.3782 138.892C17.3782 138.892 30.3026 96.4258 78.9811 110.718C78.9811 110.718 65.9714 155.498 17.3782 138.892Z" fill="#FF009C"/>
<path d="M78.9931 110.69C45.9899 101.067 29.4617 117.566 22.2603 129.12C52.6276 141.143 72.2603 119.853 78.9931 110.69Z" fill="url(#paint1_linear_27_2)"/>
<path fill-rule="evenodd" clip-rule="evenodd" d="M132.221 79.7239C134.614 82.0653 135.81 85.1701 135.81 89.0386C135.81 96.4699 132.349 103.24 125.426 109.348C118.504 115.456 110.615 120.393 101.758 124.159L102.98 128.282C109.8 125.737 116.773 124.465 123.899 124.465C128.073 124.465 132.069 125.33 135.886 127.061C139.704 128.791 142.834 131.234 145.277 134.39C147.72 137.546 148.942 141.109 148.942 145.079C148.942 155.972 143.852 164.752 133.672 171.42C123.492 178.088 111.836 182.796 98.704 185.545L99.6201 189.209C108.884 189.006 118.606 187.173 128.786 183.712C138.966 180.251 147.593 175.136 154.668 168.366C161.743 161.596 165.281 153.478 165.281 144.01C165.281 135.765 162.252 129.529 156.195 125.305C150.138 121.08 142.783 118.968 134.13 118.968C130.364 118.968 125.579 119.528 119.776 120.647L119.471 120.037C127.615 115.659 135.072 110.086 141.842 103.316C148.611 96.5462 151.996 89.8021 151.996 83.0833C151.996 78.4005 150.316 74.7866 146.957 72.2417C143.598 69.6968 139.475 68.4241 134.588 68.4241C130.117 68.4241 125.865 68.9094 121.833 69.88C119.759 72.1675 117.733 74.6416 115.75 77.2665C117.771 76.5633 119.979 76.2118 122.372 76.2118C126.546 76.2118 129.829 77.3825 132.221 79.7239Z" fill="black"/>
<defs>
<linearGradient id="paint0_linear_27_2" x1="34.313" y1="0.00479126" x2="94.396" y2="0.00479126" gradientUnits="userSpaceOnUse">
<stop stop-color="white"/>
<stop offset="1" stop-color="#0B74F4"/>
</linearGradient>
<linearGradient id="paint1_linear_27_2" x1="294.404" y1="-237.326" x2="317.502" y2="-227.994" gradientUnits="userSpaceOnUse">
<stop stop-color="#FE70C6"/>
<stop offset="0.29" stop-color="#FE73C7"/>
<stop offset="1" stop-color="white"/>
</linearGradient>
</defs>
</svg>
