<svg width="110" height="100" viewBox="0 0 110 100" fill="none" xmlns="http://www.w3.org/2000/svg">
<g clip-path="url(#clip0_161_2)">
<path d="M43.9117 52.3372H52.8938C55.2079 52.3372 56.3846 53.514 56.3846 55.3573C56.3846 57.2795 55.2079 58.4562 52.8938 58.4562H43.9117V52.3372ZM34.5764 74.0672H43.9117V64.732H52.4621C54.8156 64.732 56.267 65.5165 56.267 69.9094C56.267 71.2038 56.3061 72.851 56.816 74.0672H67.0533C65.8765 72.6943 65.7198 70.8506 65.2881 65.3594C65.0138 62.3393 63.68 60.927 61.9149 60.339V60.2605C64.4255 59.6327 66.3864 57.6323 66.3864 53.8668C66.3864 49.1996 63.9156 46.0615 57.0121 46.0615H34.5764V74.0672ZM70.8885 74.0672H80.2237V66.183L84.1853 62.8883L92.8536 74.0672H105.327L91.6769 57.0834L104.346 46.0615H91.9124L80.2237 57.0439V46.0615H70.8885V74.0672Z" fill="url(#paint0_linear_161_2)"/>
<path d="M8.22388 92.4241H10.3027V78.4217H8.22388V92.4241ZM15.7414 92.4241H17.7026V86.5016C17.7026 84.4815 19.2912 83.4421 21.0758 83.4421C23.1939 83.4421 24.1156 84.3051 24.1156 85.815V92.4241H26.0768V85.4227C26.0768 82.8537 24.2333 81.7949 21.7622 81.7949C20.2717 81.7949 18.7028 82.2653 17.7418 83.697H17.7026V82.1477H15.7414V92.4241ZM32.6548 87.3449C32.6548 84.9717 34.1257 83.5597 36.4201 83.5597C38.6951 83.5597 40.2251 84.9914 40.2251 87.3449C40.2251 89.3062 39.0874 91.1298 36.4201 91.1298C33.7727 91.1298 32.6548 89.3062 32.6548 87.3449ZM40.1071 92.4241H42.0684V78.3037H40.1071V83.5794H40.068C39.2835 82.4812 37.6754 81.9125 36.1652 81.9125C33.0863 81.9125 30.576 83.8931 30.576 87.3449C30.576 90.7967 33.0863 92.7773 36.1652 92.7773C37.6754 92.7773 39.3032 92.1889 40.068 91.1104H40.1071V92.4241ZM57.3374 82.1477H55.3765V88.0706C55.3765 90.0903 53.7878 91.1298 52.0032 91.1298C49.8849 91.1298 48.9635 90.2671 48.9635 88.7569V82.1477H47.0022V89.1491C47.0022 91.7181 48.8455 92.7773 51.3166 92.7773C52.8071 92.7773 54.3761 92.3065 55.337 90.8748H55.3765V92.4241H57.3374V82.1477ZM61.6994 89.1882C61.9152 92.1692 64.6018 92.7773 66.9554 92.7773C70.093 92.7773 72.1131 91.6593 72.1131 89.2667C72.1131 87.835 71.1131 86.9132 68.5244 86.5407L65.7395 86.1681C64.3469 85.9917 64.0332 85.5798 64.0332 84.8935C64.0332 83.697 65.4846 83.3245 66.7395 83.3245C68.7793 83.3245 69.7599 84.2069 69.8187 85.2463H71.7797C71.623 83.246 70.1128 81.7949 66.7592 81.7949C63.8568 81.7949 62.0719 83.0108 62.0719 85.109C62.0719 86.7174 63.3663 87.6196 64.8568 87.835L68.0927 88.2667C69.6617 88.4822 70.0342 88.9139 70.0342 89.6393C70.0342 90.365 69.4068 91.2477 66.8966 91.2477C64.4057 91.2477 63.6606 90.11 63.6606 89.1882H61.6994ZM77.3254 82.1477H75.2075V83.6773H77.3254V90.3453C77.3254 91.8357 78.0902 92.7773 80.0318 92.7773C80.836 92.7773 81.542 92.7773 82.2282 92.64V90.9924C81.7772 91.071 81.3261 91.1298 80.8751 91.1298C79.8751 91.1298 79.2867 90.8555 79.2867 90.0122V83.6773H82.2282V82.1477H79.2867V78.9903H77.3254V82.1477ZM86.2709 92.4241H88.2318V87.2076C88.2318 84.9914 89.5849 83.8343 91.5265 83.8343C92.0561 83.8343 92.4286 83.8931 92.9191 84.0305V81.9125C92.5466 81.8143 92.2916 81.7949 91.8011 81.7949C90.4871 81.7949 89.1927 82.4027 88.2712 84.0305H88.2318V82.1477H86.2709V92.4241ZM101.298 90.2671L97.7677 82.1477H95.5124L100.258 92.5812L99.8071 93.5224C99.1797 94.8365 98.8659 95.0914 97.6695 95.0914C97.1987 95.0914 96.9047 95.0326 96.5321 95.0129V96.6604C97.0617 96.7192 97.5321 96.7389 98.0226 96.7389C99.8466 96.7389 100.592 96.3858 101.592 94.1893L106.966 82.1477H104.769L101.298 90.2671Z" fill="url(#paint1_linear_161_2)"/>
<path d="M21.1792 55.2803C21.1792 55.2803 14.1696 58.837 11.576 62.7813C9.10061 66.5461 8.5924 73.7785 8.5924 73.7785C8.5924 73.7785 6.60314 65.9232 9.36057 61.7088C12.2014 57.3669 21.1792 55.2803 21.1792 55.2803Z" fill="#2FACAD"/>
<path d="M28.0076 45.2079C29.9426 41.9089 30.1674 38.3339 29.7122 34.6492C29.6868 34.4414 29.6698 34.2251 29.65 34.0216C29.65 33.941 29.6373 33.8619 29.6316 33.7827L29.5977 33.5C30.1179 33.5523 29.8663 34.1347 30.1631 34.3354L30.1815 34.3637C30.1956 34.5488 30.108 34.758 30.3044 34.9008L30.3228 34.929L30.3313 35.3417C30.515 36.0371 30.7554 36.7227 30.7554 37.4523C30.7426 38.1248 30.7129 38.7991 31.038 39.4209C30.9999 39.6118 30.925 39.7477 30.7144 39.592C30.467 39.4096 30.3483 39.4508 30.3228 39.7702C30.2324 40.9237 30.132 42.0783 30.0401 43.2318H29.7574C29.6995 43.1695 29.6401 43.1089 29.5807 43.048L29.5228 43.1343L29.7475 43.2431C29.9172 43.9371 29.5355 44.2804 28.8839 44.5026C29.2443 44.5209 29.5836 44.5945 29.4253 44.966C29.1694 45.5639 28.9659 44.6354 28.6676 44.9068C28.7228 45.3026 29.2839 45.4438 29.1963 45.9118C28.8288 46.822 28.1927 47.5811 27.7673 48.4561C27.6923 48.4561 27.6204 48.4857 27.5674 48.5389C27.5144 48.5917 27.4846 48.6639 27.4846 48.7385C27.4004 48.7706 27.3281 48.8273 27.2775 48.9019C27.2269 48.9762 27.2005 49.0642 27.2019 49.1544C26.4669 49.5258 25.9933 50.2058 25.3644 50.7089C24.6774 51.1033 23.9947 51.5061 23.3007 51.8892C21.6328 52.8096 19.8108 53.348 18.0228 53.9656C15.9478 54.3361 13.9746 55.0854 11.9448 55.6082C10.407 56.004 8.97655 56.6854 7.54609 57.378C4.39972 58.9044 2.1749 61.1942 1.31975 64.6853C0.928211 66.2787 0.911247 67.8829 0.926796 69.4998L0.806655 69.641C0.0631658 67.0586 -0.287377 64.441 0.283666 61.778C0.915489 58.8237 2.80389 56.8632 5.41176 55.5065C8.01961 54.1494 10.9045 53.4611 13.7371 52.7177C16.8906 51.885 20.0469 51.0625 22.9841 49.5938C23.0307 50.2442 23.6597 50.0885 24.006 50.3202C24.43 50.603 24.7679 50.329 25.0336 50.0248C25.2781 49.7424 25.4831 49.4283 25.1976 49.0353C25.0364 48.8135 25.1198 48.5392 25.0802 48.2906L25.2315 48.1818C25.3601 48.1818 25.4746 48.1677 25.4986 48.0093C25.8562 48.0234 25.999 48.5012 26.3962 48.4632C26.4443 48.2269 26.245 48.1804 26.1615 48.0505C26.0782 47.9202 25.9227 47.8452 26.0584 47.6998C26.1941 47.5544 26.3114 47.6998 26.4443 47.7237C26.6563 47.7621 26.8118 48.1762 27.021 47.916C27.2019 47.6942 26.8471 47.5371 26.7383 47.3505C26.6831 47.2487 26.6436 47.1385 26.5969 47.0311L26.6167 47.0086C27.5877 47.4114 27.5877 47.4114 27.9821 46.5054C27.9991 46.466 28.0401 46.4023 28.0613 46.4051C28.597 46.4787 28.3312 46.0614 28.4443 45.8593C28.8019 45.2177 28.3977 45.2473 28.0076 45.2079ZM28.8896 45.9273C28.8782 45.9118 28.8712 45.8892 28.857 45.885C28.8429 45.8808 28.8288 45.8991 28.8132 45.9075L28.8669 45.9755L28.8896 45.9273Z" fill="#2FACAD"/>
<path d="M26.119 26.709C26.1634 26.7401 26.198 26.7832 26.2185 26.8334C26.239 26.8835 26.2448 26.9384 26.235 26.9917C26.1134 27.0737 26.1883 27.1161 26.2689 27.1571L26.2491 27.1967C26.2067 28.2836 26.1077 28.3797 25.2229 28.1776C25.1773 28.1738 25.1315 28.1821 25.09 28.2016C24.6745 28.3529 24.4243 28.1932 24.1473 27.8582C23.9635 27.6362 23.7529 27.3451 23.408 27.2815C23.4137 27.2437 23.4112 27.2053 23.4007 27.1686C23.3902 27.1319 23.3719 27.098 23.3471 27.069C23.3223 27.0401 23.2915 27.0168 23.2569 27.0007C23.2223 26.9847 23.1846 26.9763 23.1465 26.9762L20.304 20.4897C19.7867 19.243 19.3005 17.9808 18.7492 16.7511C17.7753 14.5955 17.1944 12.3142 16.4693 10.0767C16.1371 9.05187 16.4085 7.85892 15.583 6.97832C15.542 6.93452 15.5915 6.80589 15.6 6.71684C15.7074 5.54082 15.8403 4.36621 15.9081 3.18314C15.9265 2.85804 16.1908 2.53153 15.9632 2.14283C15.7032 2.2969 15.706 2.55415 15.5901 2.7379C15.3074 3.1789 15.4261 3.83476 14.8381 4.09909C15.1208 2.56828 15.983 1.31312 16.7407 0C16.2403 3.46301 17.429 6.53589 18.6375 9.63283C19.6538 12.2379 20.8581 14.751 22.0511 17.2656C23.3939 20.101 24.6914 22.9534 25.8194 25.8807C25.8463 26.0645 25.7515 26.2836 25.972 26.4108V26.4023C25.9579 26.5422 25.9805 26.6567 26.119 26.709Z" fill="#FBCB43"/>
<path d="M16.5809 25.8745C15.5561 23.5012 14.7165 21.0687 14.2332 18.5244C14.3052 18.5824 14.4155 18.6276 14.4423 18.7025C14.6233 19.2156 14.8381 19.5817 15.4473 19.1393C15.5957 19.0304 15.8714 19.0361 15.8926 19.2905C15.9632 20.2234 16.6572 20.8651 16.964 21.6934C17.388 22.8327 17.9534 23.9168 18.4015 25.0476C19.1082 26.8342 20.0977 28.4654 21.0051 30.146C21.2101 30.5248 21.5493 30.4683 21.6341 30.1743C21.8051 29.5764 21.9846 29.7502 22.3111 30.0329C22.5415 30.2237 22.8341 30.3227 22.9797 30.6266C23.1083 30.898 23.3345 30.8556 23.4801 30.6449C23.9494 29.9637 24.1176 30.3849 24.2603 30.8513C24.2717 30.9204 24.3072 30.9831 24.3605 31.0284C24.4139 31.0737 24.4815 31.0986 24.5515 31.0987L24.6928 31.3814C24.5939 31.4309 24.5939 31.4761 24.6928 31.5227C24.7702 31.6635 24.8378 31.8094 24.895 31.9595C25.5113 33.9709 25.835 36.0387 26.1077 38.1193C26.1742 38.6239 26.2123 39.1866 27.042 38.9095C27.3813 38.7965 27.7912 38.8359 28.1573 38.7215C28.2986 39.4567 28.5248 38.7612 28.7085 38.75C28.6817 40.8246 27.9778 42.6778 26.8413 44.3852C26.748 44.4081 26.6816 44.4546 26.6788 44.5605L26.6944 44.5394C26.6434 44.5947 26.5926 44.6496 26.5431 44.7063H26.5685C26.341 44.7524 26.1113 44.7866 25.8802 44.8095C25.066 44.8531 24.7791 44.5436 24.9628 43.7549C25.3035 42.2975 25.801 40.8771 25.8024 39.345C25.8024 38.7003 25.6851 38.4715 25.0024 38.4415C24.5869 38.4232 24.2561 37.8764 23.7543 38.2422C23.702 38.2806 23.6129 38.0317 23.5479 37.9172C23.237 37.4084 23.196 36.8218 23.0165 36.2764C22.5472 34.8472 22.044 33.4281 21.521 32.0174C20.8878 30.3057 19.6835 28.8852 19.0404 27.1735C18.9923 27.0462 18.9061 26.8809 18.7407 26.9445C18.5344 27.0236 18.5994 27.2187 18.6658 27.3685C18.7322 27.5184 18.9075 27.6625 18.8821 27.8731C18.8609 28.047 18.6715 28.1742 18.6276 28.0286C18.4311 27.394 17.6721 27.4745 17.3654 26.9374C17.159 26.5685 16.9668 26.1261 16.5809 25.8745Z" fill="#FC4953"/>
<path d="M16.5811 25.874C16.9669 26.1256 17.1592 26.561 17.3641 26.92C17.6708 27.4571 18.4299 27.3766 18.6263 28.0112C18.6702 28.1525 18.8596 28.0296 18.8808 27.8557C18.9062 27.6451 18.7394 27.5193 18.6645 27.3511C18.5896 27.1829 18.5331 27.0091 18.7394 26.9271C18.9048 26.8635 18.991 27.0288 19.0391 27.1561C19.678 28.8678 20.8865 30.2883 21.5197 32C22.0427 33.4135 22.5459 34.827 23.0152 36.2587C23.1947 36.8045 23.2357 37.3897 23.5467 37.8999C23.6159 38.0144 23.7007 38.263 23.753 38.2249C24.2548 37.8517 24.5856 38.4059 25.0011 38.4242C25.6838 38.4538 25.8012 38.683 25.8012 39.3274C25.8012 40.8598 25.3022 42.2802 24.9615 43.7376C24.7778 44.5263 25.0647 44.8359 25.8789 44.7918C26.11 44.7693 26.3397 44.7348 26.5673 44.6887C26.1588 45.5158 25.4605 46.088 24.7637 46.6323C23.3861 47.7087 21.8401 48.5503 20.1882 49.1228C20.0837 49.1594 19.9734 49.1809 19.8292 49.219C20.3098 48.7017 20.796 48.245 21.2074 47.7263C22.7113 45.8295 22.8781 43.6429 22.4795 41.3658C21.9212 38.1855 20.5868 35.2749 19.3147 32.3407C18.379 30.1936 17.3528 28.0875 16.5811 25.874Z" fill="#E02A67"/>
<path d="M30.7637 37.4514C30.7524 36.7222 30.5192 36.038 30.3397 35.3412C30.4924 35.1999 30.5446 35.0585 30.3312 34.9285L30.3128 34.9002C30.3128 34.7108 30.4103 34.5002 30.1899 34.3631L30.1715 34.3349L30.1969 33.7949C30.7934 34.5299 30.9192 35.457 31.1977 36.3137C31.8819 38.3672 32.2582 40.5106 32.3143 42.6743C32.4033 47.1975 30.4768 50.6732 26.9601 53.3898C24.0229 55.6599 20.6574 57.1144 17.2919 58.576C13.5434 60.2014 9.75383 61.7479 6.37563 64.1039C6.31207 64.1327 6.24429 64.1507 6.17492 64.1577C6.16644 63.9922 6.16221 63.8285 6.29788 63.701C6.7389 63.2912 7.16577 62.8672 7.62658 62.4827C7.76792 62.3669 7.94176 62.2905 7.79052 62.1222C7.4301 61.7222 7.83577 61.6856 8.03225 61.5317C8.5651 61.1074 9.2139 60.8246 9.56302 60.2042C9.88105 60.2324 10.1963 60.1845 10.4196 59.9584C11.0952 59.2813 11.9984 59.0239 12.8366 58.6961C15.6735 57.5838 18.5541 56.5944 21.3175 55.3039C23.8448 54.1179 26.2152 52.7426 28.1021 50.6493C29.2683 49.3602 30.1701 47.9253 30.6012 46.2222C30.7623 46.1176 30.7312 45.9535 30.7312 45.7982L30.7425 45.6567C30.7494 45.6099 30.7527 45.5627 30.7524 45.5155C30.9743 45.3134 30.874 45.0461 30.8938 44.8088C30.9347 44.6672 30.9772 44.526 31.0182 44.3845C31.0182 44.2898 31.0182 44.1954 31.0182 44.1021V43.8194C31.0182 43.726 31.0309 43.6313 31.0365 43.5366C31.4167 42.9627 31.2853 42.3253 31.2712 41.6989L31.25 40.4056L31.1722 40.2912C31.1199 40.0084 31.2641 39.6877 31.0309 39.4317C31.0834 38.7602 30.9924 38.0852 30.7637 37.4514Z" fill="#8EE99F"/>
<path d="M24.5517 31.0908C24.4818 31.0907 24.4141 31.0658 24.3608 31.0205C24.3075 30.9752 24.272 30.9124 24.2606 30.8434C24.1192 30.377 23.9496 29.9557 23.4803 30.637C23.339 30.8476 23.1086 30.8901 22.98 30.6186C22.8386 30.3147 22.5418 30.2158 22.3114 30.025C21.9849 29.755 21.8054 29.5741 21.6343 30.1663C21.5495 30.4603 21.2103 30.5169 21.0053 30.1381C20.0993 28.4575 19.1042 26.8263 18.4017 25.0397C17.9551 23.9089 17.3868 22.8247 16.9642 21.6855C16.6575 20.86 15.9635 20.2183 15.8928 19.2826C15.873 19.0282 15.596 19.0225 15.4476 19.1314C14.8384 19.5738 14.6235 19.2077 14.4426 18.6946C14.4157 18.6197 14.3012 18.5744 14.2334 18.5165L14.2249 18.4882L14.2065 18.4218C13.5774 16.1533 13.3304 13.7959 13.4758 11.4463C13.6779 11.517 13.6411 11.6936 13.6694 11.8534C13.7726 12.4117 13.2962 13.2061 14.3168 13.4167C14.4228 13.4379 14.4765 13.8336 14.509 14.0626C14.5479 14.2652 14.6017 14.4646 14.6702 14.6591C15.1281 16.2776 15.8575 17.7984 16.3663 19.3971C16.5303 19.9201 16.8257 20.1844 17.3049 20.3964C17.784 20.6084 17.7091 20.1985 17.8533 20.0204C17.8815 20.0031 17.9134 19.9928 17.9464 19.9906C17.9794 19.9884 18.0125 19.9943 18.0427 20.0077C18.7579 20.3653 19.6258 19.9936 20.3043 20.4869L23.1453 26.9691C23.1361 27.0078 23.1362 27.0482 23.1458 27.0869C23.1554 27.1256 23.1742 27.1614 23.2005 27.1913C23.2268 27.2213 23.2599 27.2444 23.2971 27.2589C23.3342 27.2733 23.3743 27.2787 23.4139 27.2744C23.413 27.5313 23.466 27.7855 23.5694 28.0207C23.9327 29.0341 24.4033 30.0095 24.5517 31.0908Z" fill="#FC6F3B"/>
<path d="M20.3041 20.4892C19.6199 19.9959 18.7492 20.3677 18.0425 20.0101C18.0123 19.9966 17.9792 19.9908 17.9462 19.993C17.9132 19.9952 17.8812 20.0054 17.8531 20.0228C17.7117 20.2009 17.7951 20.6151 17.3047 20.3988C16.8142 20.1825 16.5301 19.9225 16.3661 19.3995C15.8615 17.8008 15.1322 16.2799 14.6699 14.6615C14.6015 14.4669 14.5477 14.2676 14.5088 14.065C14.4763 13.836 14.4226 13.4402 14.3166 13.419C13.296 13.2084 13.7724 12.4141 13.6692 11.8557C13.6409 11.696 13.6777 11.5194 13.4755 11.4486C13.3667 11.0063 13.5038 10.5737 13.5279 10.137V10.0903C13.5806 8.47999 13.8766 6.88692 14.4056 5.36506C14.5597 5.19404 14.5851 4.97495 14.6247 4.76291C14.6935 4.54337 14.7637 4.32428 14.8353 4.10566C15.4233 3.84133 15.3117 3.18549 15.5873 2.74448C15.7032 2.56073 15.7004 2.30348 15.9604 2.14941C16.1838 2.53812 15.9237 2.86463 15.9053 3.18973C15.8375 4.36714 15.7046 5.54175 15.5972 6.7234C15.5887 6.81245 15.5392 6.94108 15.5802 6.98492C16.4057 7.86552 16.1343 9.05847 16.4665 10.0833C17.1902 12.3208 17.7725 14.6064 18.7464 16.7577C19.3019 17.9832 19.7881 19.2454 20.3041 20.4892Z" fill="#FDA31A"/>
<path d="M24.5517 31.0915C24.4103 30.013 23.9326 29.0377 23.5622 28.0313C23.4588 27.7962 23.4058 27.5419 23.4067 27.285C23.7502 27.3486 23.9608 27.6398 24.1446 27.8617C24.4273 28.1967 24.6718 28.3564 25.0874 28.2052C25.1288 28.1857 25.1746 28.1774 25.2202 28.1811C26.1037 28.3833 26.2097 28.2872 26.2464 27.2002C26.7779 27.9352 26.9532 28.8158 27.2359 29.6512C28.1433 32.375 28.8119 35.1468 28.7709 38.046C28.7709 38.2777 28.7271 38.5094 28.7045 38.7414C28.5207 38.7527 28.3002 39.4481 28.1532 38.7129C27.7871 38.8273 27.3772 38.7879 27.038 38.9009C26.2083 39.1836 26.1701 38.6182 26.1037 38.1108C25.8309 36.0301 25.5072 33.9623 24.8909 31.9509C24.8327 31.8012 24.7643 31.6558 24.6859 31.5155C24.6859 31.4703 24.6859 31.4237 24.6859 31.3742L24.5517 31.0915Z" fill="#FB8359"/>
<path d="M11.2861 14.857C11.4049 14.2436 11.5231 13.6311 11.6409 13.0195C11.8346 14.3934 11.9999 15.7447 12.2713 17.079C12.9427 20.3879 14.1088 23.5414 15.381 26.6511C16.6234 29.6632 17.962 32.6371 19.1606 35.6676C19.7359 37.1221 20.3903 38.5721 20.5656 40.1612C20.3225 40.5088 20.5656 41.0091 20.1854 41.3257C20.0864 41.4105 20.1628 41.6904 19.9126 41.645C19.7048 41.6084 19.7133 41.3852 19.6864 41.2436C19.196 38.7151 18.2107 36.3573 17.2129 34.0026C17.0305 33.5785 16.8128 33.2181 16.3492 33.0696V32.9071C16.287 31.9601 15.9662 31.0922 15.5704 30.2371C14.4919 27.9091 13.5307 25.5203 12.841 23.0552C12.2251 20.8738 11.8236 18.6374 11.6423 16.3779C11.6112 15.8804 11.8006 15.2599 11.2861 14.857Z" fill="#B86CE9"/>
<path d="M11.2862 14.8564C11.8007 15.2635 11.6113 15.8798 11.6509 16.3759C11.8322 18.6354 12.2336 20.8717 12.8495 23.0532C13.5393 25.5183 14.5005 27.907 15.5789 30.235C15.9747 31.0902 16.2956 31.9581 16.3577 32.9051C16.273 32.9574 16.2249 33.0111 16.3577 33.0676C16.3577 33.8069 15.8376 33.797 15.3203 33.7913C15.1167 33.7786 15.0743 33.561 14.9259 33.4775C14.9824 33.0775 14.6079 32.8811 14.4849 32.5545C13.8983 30.9997 13.2255 29.4689 12.7633 27.8675C12.6219 27.3756 12.4735 27.1862 12.0693 27.5848C11.8262 26.2236 11.3809 24.9458 11.1604 23.6115L11.135 24.0893C10.7774 22.2093 10.7972 20.3096 10.9116 18.4142C10.9753 17.2254 11.1562 16.0423 11.2862 14.8564Z" fill="#B122F4"/>
<path d="M15.3132 33.7882C15.832 33.7882 16.3521 33.8037 16.3521 33.0645C16.8157 33.2058 17.0334 33.5691 17.2158 33.9974C18.2137 36.3524 19.1946 38.7098 19.6893 41.2386C19.7162 41.3798 19.7077 41.6034 19.9155 41.6401C20.1657 41.6851 20.0894 41.4055 20.1883 41.3207C20.5614 41.001 20.3296 40.5034 20.5685 40.1559C20.8922 41.7108 21.1975 43.2527 20.8512 44.8386C20.5134 46.3682 19.7445 47.6062 18.3804 48.433C18.2787 47.9073 18.6391 47.5059 18.7663 47.0436C19.4731 44.471 18.7324 42.0964 17.7684 39.7728C17.0235 37.9749 16.1585 36.2263 15.3471 34.4553C15.4298 34.3617 15.4725 34.2395 15.4662 34.1148C15.4598 33.9901 15.4049 33.8729 15.3132 33.7882Z" fill="#841EF0"/>
<path d="M15.8587 50.4844C15.9435 50.9013 15.5591 50.808 15.3866 50.8661C13.4219 51.5175 11.3865 51.8978 9.37936 52.3868C7.11073 52.9411 4.90996 53.659 2.97207 55.0161C2.86947 55.0692 2.7601 55.1083 2.64697 55.1319C3.43145 53.8738 4.56506 52.9819 5.75661 52.1439C6.76805 51.4347 7.93562 50.9798 9.16027 50.8178C9.81753 50.7217 10.4677 50.7939 11.1165 50.7034C12.6883 50.483 14.2813 50.6611 15.8587 50.4844Z" fill="#2FACAD"/>
<path d="M40.7885 30.4845C39.96 31.3142 38.8969 31.8372 38.011 32.5891C36.5578 33.8231 35.2519 35.1716 34.3005 36.8678C33.7676 37.8175 33.6121 38.8467 33.3111 39.8558C33.1344 38.6474 32.887 37.4713 32.6396 36.2925C32.6726 36.2819 32.7061 36.2734 32.74 36.2671C32.8813 36.2488 32.8813 36.1396 32.8813 36.0379C33.1047 35.9534 33.164 35.7312 33.2644 35.5534C34.3711 33.6987 35.8255 32.24 37.8188 31.3128C38.4674 31.0117 39.1895 30.8463 39.7649 30.3884L40.654 30.3799L40.6681 30.3898L40.7885 30.4845Z" fill="#8EE99F"/>
<path d="M15.3441 34.4551C16.1555 36.226 17.0205 37.9746 17.7654 39.7725C18.7294 42.0964 19.4757 44.4711 18.7633 47.0436C18.6361 47.5056 18.2757 47.907 18.3775 48.433C18.2856 48.5006 18.1654 48.6436 18.1061 48.6211C17.9209 48.5531 18.041 48.3763 18.0608 48.2591C18.4651 45.8929 17.9817 43.6411 17.1845 41.4334C16.4226 39.3218 15.4629 37.2961 14.5187 35.2623C14.4254 35.0586 14.195 34.8678 14.3491 34.5922C14.718 34.8141 15.0261 34.6049 15.3441 34.4551Z" fill="#6F13B4"/>
<path d="M40.6581 30.3743L39.7704 30.3828C38.1761 30.3899 36.6084 30.551 35.137 31.2309L35.0042 31.3623L34.9915 31.3708H34.73C34.6731 31.3665 34.616 31.3773 34.5646 31.4021C34.5133 31.4269 34.4694 31.4649 34.4374 31.5122C33.8578 31.6069 33.4282 31.9249 33.0677 32.3744C32.6776 32.8606 32.2649 33.3271 31.862 33.802C31.6048 33.2522 31.3602 32.6967 31.0846 32.1567C30.9574 31.9079 31.0846 31.7652 31.2146 31.5913C32.9886 29.2534 35.6954 28.5609 38.3754 29.7849C38.8419 29.9984 39.3394 29.9729 39.8113 30.0987C40.0926 30.1835 40.4236 30.1185 40.6581 30.3743Z" fill="#2FACAD"/>
<path d="M9.56182 60.209C9.2127 60.8364 8.5639 61.1192 8.03101 61.5365C7.83457 61.6903 7.4289 61.7269 7.78932 62.1273C7.94055 62.2953 7.76386 62.3717 7.62534 62.4875C7.16457 62.872 6.7377 63.296 6.29671 63.7058C6.15534 63.8333 6.16523 63.997 6.17372 64.1625C6.04791 64.1541 5.94615 64.1836 5.91365 64.3238L5.76383 64.4495C4.31076 65.7217 2.90436 67.0319 1.92199 68.7238C1.62092 69.2438 1.3566 69.7854 1.06401 70.335C0.974865 70.2491 0.907383 70.1431 0.867087 70.0259C0.826795 69.9086 0.814837 69.7836 0.8322 69.6611L0.952351 69.5195C0.987901 69.5217 1.02351 69.5167 1.05708 69.5048C1.09066 69.4928 1.12152 69.4745 1.14786 69.4505C1.1742 69.4266 1.19548 69.3974 1.21045 69.3653C1.22542 69.3329 1.23379 69.2981 1.23504 69.2625C1.37639 68.4002 1.73965 67.6199 2.13966 66.8593C3.08463 65.0132 4.45587 63.4185 6.13978 62.2076C7.19988 61.4446 8.06918 60.2671 9.56182 60.209Z" fill="#49DB9D"/>
<path d="M15.8587 50.4847C14.2813 50.6614 12.6883 50.4847 11.1136 50.7037C10.4649 50.7942 9.81467 50.722 9.15741 50.8181C7.93276 50.9801 6.76523 51.435 5.75375 52.1442C4.56502 52.9822 3.43142 53.8741 2.64412 55.1322V55.1195C2.59889 55.1547 2.55365 55.19 2.50277 55.2241C2.46602 55.484 2.13244 55.3216 2.06177 55.5336C2.80623 54.1304 3.80178 52.8755 4.99896 51.8319C6.78699 50.3079 8.8634 49.7738 11.1617 49.9562C12.6374 50.0734 14.1074 50.2502 15.5929 50.2202C15.7385 50.2231 16.0961 50.0903 15.8587 50.4847Z" fill="#5EB9BC"/>
<path d="M11.1293 24.092L11.1548 23.6143C11.3753 24.9486 11.8205 26.2263 12.0636 27.5875C12.4679 27.1833 12.6163 27.3727 12.7576 27.8702C13.2198 29.4717 13.8884 30.9996 14.4792 32.5573C14.6022 32.8838 14.9768 33.0803 14.9202 33.4817C14.1103 33.4817 14.2135 33.992 14.3662 34.5136C14.1555 34.4514 14.1103 34.262 14.034 34.0895C12.676 31.0554 11.7003 27.8643 11.1293 24.5895C11.1141 24.424 11.1141 24.2575 11.1293 24.092Z" fill="#6F13B4"/>
<path d="M31.8564 33.8065C32.2593 33.3315 32.672 32.8651 33.0621 32.3788C33.4226 31.9293 33.8522 31.6113 34.4318 31.5166C33.2897 32.8071 33.5003 34.5627 32.877 36.0396L32.7356 36.2688C32.7017 36.2751 32.6682 36.2836 32.6353 36.2941C32.3771 35.4639 32.1175 34.6347 31.8564 33.8065Z" fill="#3DCBB0"/>
<path d="M25.0803 48.2891C25.1199 48.5377 25.0365 48.8119 25.1976 49.0338C25.4803 49.4253 25.2782 49.7405 25.0336 50.0232C24.7679 50.3271 24.4245 50.5986 24.0061 50.3186C23.6598 50.087 23.0308 50.2422 22.9841 49.5922L25.0803 48.2891Z" fill="#5EB9BC"/>
<path d="M28.0076 45.207C28.3977 45.2465 28.8019 45.2169 28.4514 45.8458C28.3383 46.0479 28.6041 46.4648 28.0684 46.3915C28.0472 46.3915 28.0062 46.4521 27.9892 46.4919C27.5948 47.3979 27.5948 47.3979 26.6238 46.9951L28.0076 45.207ZM27.6613 46.7887L27.7164 46.7151L27.6429 46.7686L27.5892 46.8408L27.6613 46.7887Z" fill="#5EB9BC"/>
<path d="M30.1985 33.7972L30.173 34.3371C29.8691 34.1364 30.1207 33.554 29.6076 33.5017C29.2981 32.9222 29.4154 32.2579 29.2373 31.6416C29.678 32.1292 29.9652 32.7359 30.0628 33.3858L30.166 33.6247L30.1985 33.7972Z" fill="#5EB9BC"/>
<path d="M26.6041 47.0186C26.6493 47.1259 26.6889 47.2362 26.7455 47.3379C26.8501 47.5316 27.2048 47.6886 27.0282 47.9034C26.819 48.1636 26.6635 47.7495 26.4515 47.7112C26.3186 47.6872 26.1829 47.5615 26.0656 47.6872C25.9483 47.8129 26.0953 47.9302 26.1688 48.0376C26.2423 48.1453 26.4515 48.2143 26.4034 48.4506C26.0062 48.4886 25.8635 48.0108 25.5059 47.9967C25.8083 47.6055 26.1807 47.2738 26.6041 47.0186Z" fill="#5EB9BC"/>
<path d="M14.3675 34.5084C14.2261 33.9868 14.1117 33.4836 14.9216 33.4766C15.07 33.5585 15.1124 33.7762 15.3159 33.7889C15.4067 33.8744 15.4606 33.9919 15.4661 34.1165C15.4717 34.2411 15.4285 34.3629 15.3456 34.4561C15.0276 34.6059 14.7194 34.8151 14.3562 34.5974C14.351 34.5827 14.3494 34.567 14.3513 34.5516C14.3533 34.5361 14.3588 34.5213 14.3675 34.5084ZM15.1732 34.0603C15.1235 33.9765 15.0571 33.9038 14.978 33.8469C14.899 33.79 14.809 33.75 14.7138 33.7296C14.6791 33.7264 14.6441 33.731 14.6115 33.743C14.5787 33.7551 14.5492 33.7742 14.5248 33.7992C14.5004 33.8241 14.4819 33.8541 14.4706 33.887C14.4593 33.92 14.4555 33.955 14.4594 33.9896C14.4778 34.0914 14.5328 34.1829 14.6141 34.2469C14.6953 34.311 14.7971 34.3431 14.9004 34.3374C15.0516 34.343 15.1421 34.2313 15.1718 34.0603H15.1732Z" fill="#B86CE9"/>
<path d="M14.6248 4.76562C14.5853 4.97763 14.5598 5.19672 14.4058 5.36777C14.3771 5.257 14.3827 5.14017 14.4218 5.03267C14.4609 4.92513 14.5317 4.83203 14.6248 4.76562Z" fill="#FBCB43"/>
<path d="M25.9693 26.4265C25.7488 26.2993 25.8435 26.0802 25.8167 25.8965C25.9778 26.042 25.9679 26.2357 25.9693 26.4265Z" fill="#FB8359"/>
<path d="M2.07029 55.5332L1.91339 55.799L1.89502 55.7874L2.07029 55.5445V55.5332Z" fill="#5EB9BC"/>
<path d="M40.7883 30.4851L40.6665 30.3848L40.8859 30.4455L40.7883 30.4851Z" fill="#2FACAD"/>
<path d="M30.1559 33.6236L30.0527 33.3848C30.1785 33.4243 30.187 33.5162 30.1559 33.6236Z" fill="#8EE99F"/>
<path d="M29.6331 33.7764C29.6331 33.8555 29.6458 33.9347 29.6515 34.0152C29.6341 34.0011 29.6198 33.9836 29.6094 33.9637C29.599 33.9438 29.5928 33.9221 29.5911 33.8997C29.5894 33.8774 29.5922 33.855 29.5994 33.8337C29.6066 33.8125 29.6181 33.793 29.6331 33.7764Z" fill="#5EB9BC"/>
<path d="M26.6775 44.5494C26.6775 44.4434 26.7467 44.3969 26.84 44.374C26.8358 44.4804 26.7891 44.5451 26.6775 44.5494Z" fill="#E02A67"/>
<path d="M25.4986 48.0078C25.4746 48.1659 25.3573 48.1846 25.2314 48.1803C25.2558 48.1296 25.2937 48.0867 25.3408 48.0564C25.3879 48.0261 25.4425 48.0092 25.4986 48.0078Z" fill="#5EB9BC"/>
<path d="M26.1192 26.7094C25.9778 26.66 25.9623 26.5455 25.9651 26.4268C26.0139 26.4557 26.0539 26.4972 26.081 26.5469C26.1081 26.5967 26.1213 26.6528 26.1192 26.7094Z" fill="#FB8359"/>
<path d="M5.90942 64.3208C5.94192 64.1793 6.0508 64.1511 6.16953 64.1596C6.14949 64.211 6.1133 64.2546 6.0664 64.2835C6.01949 64.3127 5.96439 64.3258 5.90942 64.3208Z" fill="#8EE99F"/>
<path d="M26.5417 44.6942C26.5912 44.6376 26.6421 44.5826 26.693 44.5273C26.6859 44.6221 26.6491 44.69 26.5417 44.6942Z" fill="#E02A67"/>
<path d="M13.5307 10.0947L13.5279 10.1413L13.4897 10.1145L13.5307 10.0947Z" fill="#FC6F3B"/>
<path d="M14.2063 18.4277L14.2247 18.4942L14.1865 18.4645L14.2063 18.4277Z" fill="#FC4953"/>
<path d="M26.269 27.1576C26.1884 27.1166 26.1135 27.0742 26.2351 26.9922L26.269 27.1576Z" fill="#FB8359"/>
<path d="M2.5127 55.2237C2.55934 55.1899 2.60457 55.1544 2.65404 55.1191C2.60457 55.1544 2.55934 55.1899 2.5127 55.2237Z" fill="#2FACAD"/>
<path d="M5.75537 64.4489L5.9052 64.3232L5.75537 64.4489Z" fill="#8EE99F"/>
<path d="M9.56168 60.2091C8.06904 60.2739 7.19978 61.4514 6.12552 62.2134C4.44316 63.4208 3.07204 65.0106 2.1254 66.8525C1.72539 67.6127 1.35647 68.3929 1.22077 69.2553C1.21952 69.2908 1.21116 69.3257 1.19619 69.3581C1.18121 69.3905 1.15993 69.4194 1.13359 69.4433C1.10726 69.4672 1.07639 69.4859 1.04281 69.4979C1.00924 69.5095 0.973626 69.5148 0.938077 69.5127C0.922531 67.8954 0.93808 66.2912 1.33103 64.6982C2.18901 61.2084 4.41098 58.9172 7.55739 57.3905C8.98218 56.6979 10.4183 56.0165 11.9561 55.6208C13.9901 55.0979 15.9633 54.3489 18.034 53.9785C18.051 54.2313 17.8828 54.3715 17.7514 54.5651C17.186 55.3877 16.1344 55.532 15.511 56.3162C15.1689 56.7405 14.5922 57.0852 14.0876 57.4162C13.6749 57.6859 12.9272 57.5091 12.9229 58.3194C12.8407 58.344 12.7565 58.3613 12.6713 58.3715C12.0225 58.4718 11.59 59.0373 10.8508 59.0866C10.4013 59.1179 9.99422 59.8077 9.56876 60.2021L9.56168 60.2091Z" fill="#3DCBB0"/>
<path d="M9.56177 60.1987C9.98582 59.8044 10.3943 59.1146 10.8438 59.0836C11.583 59.0339 12.0156 58.4688 12.6643 58.3684C12.7536 58.3617 12.842 58.347 12.9287 58.3244C12.9287 57.5146 13.6806 57.6913 14.0934 57.4213C14.598 57.0906 15.1747 56.7512 15.5167 56.3216C16.1429 55.5441 17.1945 55.3931 17.7599 54.5702C17.8928 54.3765 18.061 54.2367 18.0426 53.9836C19.8307 53.366 21.6526 52.8276 23.3205 51.9075C24.0145 51.5244 24.6973 51.1216 25.3842 50.7272C26.3185 50.5857 26.7977 49.9156 27.2217 49.1723C27.438 49.1156 27.7701 49.1385 27.5044 48.7568C27.5044 48.6818 27.5342 48.61 27.5872 48.5568C27.6402 48.5037 27.7121 48.4741 27.7871 48.4741C28.0005 48.4811 28.1009 48.3413 28.2295 48.1913C28.5914 47.7772 28.8416 47.1822 29.5539 47.2656C29.5539 46.5589 30.1519 46.454 30.6126 46.2139C30.1816 47.91 29.2797 49.3519 28.1136 50.641C26.2196 52.7343 23.8492 54.1096 21.3289 55.2955C18.5642 56.5931 15.6835 57.5825 12.8481 58.6878C12.0099 59.0156 11.1067 59.273 10.4311 59.9501C10.1978 60.179 9.88265 60.2269 9.56177 60.1987Z" fill="#49DB9D"/>
<path d="M30.6112 46.2152C30.1504 46.4553 29.5511 46.5585 29.5525 47.2666C28.8457 47.1831 28.5899 47.7782 28.228 48.1926C28.0994 48.3338 27.9991 48.475 27.7856 48.475C28.2097 47.5976 28.8472 46.8384 29.2147 45.931C29.4775 45.931 29.7066 46.0328 29.6981 45.5338C29.6868 44.8426 30.156 44.4257 30.8839 44.3789L31.0338 44.3874C30.9928 44.5289 30.9504 44.6701 30.9094 44.8113C30.6635 45.0078 30.7907 45.2807 30.7681 45.5183C30.7683 45.5655 30.765 45.6127 30.7582 45.6595C30.7412 45.6722 30.7073 45.6877 30.7087 45.6962C30.7187 45.7317 30.7314 45.7662 30.7469 45.7993C30.7412 45.9409 30.7723 46.105 30.6112 46.2152Z" fill="#3DCBB0"/>
<path d="M31.2713 40.4007L31.2925 41.694C30.8345 41.8863 31.0932 42.2848 31.0578 42.5859C31.0225 42.887 31.0225 43.1412 30.6225 43.1046C30.5363 42.8218 30.4387 42.7384 30.3398 43.0961C30.2931 43.2715 30.2733 43.4507 30.0486 43.2373C30.1447 42.0841 30.2451 40.9292 30.3313 39.7757C30.3567 39.4535 30.4726 39.4155 30.7228 39.5975C30.9334 39.7532 31.0055 39.6176 31.0465 39.4268C31.2783 39.6824 31.1342 40.0007 31.1879 40.2859L31.2713 40.4007Z" fill="#3DCBB0"/>
<path d="M30.057 43.2363C30.2817 43.45 30.3015 43.2705 30.3482 43.0951C30.4443 42.7374 30.5418 42.8279 30.6309 43.1036C30.5941 43.4314 30.7552 43.556 31.0662 43.5275C31.0662 43.6222 31.0549 43.7169 31.0478 43.8102C30.8683 43.8374 30.6959 43.8683 30.8938 44.093C30.8938 44.1835 30.8938 44.274 30.8938 44.3645C30.1658 44.411 29.6966 44.8282 29.7079 45.5194C29.7164 46.0184 29.4874 45.912 29.2245 45.9166C29.3121 45.4472 28.7509 45.3057 28.6958 44.9099C28.994 44.6388 29.1976 45.5673 29.4534 44.9694C29.6118 44.5976 29.2725 44.524 28.9121 44.5057C29.5637 44.2838 29.9453 43.9405 29.7757 43.2465L29.7856 43.2349L30.057 43.2363Z" fill="#5EB9BC"/>
<path d="M27.2189 49.1738C26.7948 49.9161 26.3199 50.5876 25.3813 50.7288C26.0104 50.2256 26.4838 49.5457 27.2189 49.1738Z" fill="#3DCBB0"/>
<path d="M30.7638 37.4512C30.9961 38.0804 31.0924 38.7512 31.0465 39.4202C30.7242 38.7998 30.7539 38.1255 30.7638 37.4512Z" fill="#3DCBB0"/>
<path d="M27.5029 48.7598C27.7715 49.1411 27.4394 49.1186 27.2203 49.1753C27.2189 49.0851 27.2452 48.9971 27.2958 48.9228C27.3464 48.8481 27.4188 48.7915 27.5029 48.7598Z" fill="#3DCBB0"/>
<path d="M30.1885 34.3643C30.4091 34.5056 30.3143 34.712 30.3115 34.9014C30.115 34.7657 30.1984 34.5494 30.1885 34.3643Z" fill="#5EB9BC"/>
<path d="M30.3298 34.9297C30.5432 35.0625 30.491 35.2011 30.3383 35.3423L30.3298 34.9297Z" fill="#5EB9BC"/>
<path d="M29.766 43.2478L29.5413 43.1387L29.5992 43.0527C29.6586 43.1133 29.7179 43.1742 29.7759 43.2362L29.766 43.2478Z" fill="#5EB9BC"/>
<path d="M28.8896 45.9325L28.867 45.9808L28.8132 45.9128C28.8288 45.9044 28.8472 45.886 28.8571 45.8903C28.867 45.8945 28.8783 45.9114 28.8896 45.9325Z" fill="#5EB9BC"/>
<path d="M23.4137 27.275C23.3746 27.2781 23.3354 27.2719 23.2992 27.2569C23.263 27.2419 23.2308 27.2186 23.2053 27.1888C23.1798 27.1591 23.1617 27.1237 23.1525 27.0856C23.1433 27.0476 23.1432 27.0079 23.1522 26.9697C23.1903 26.9699 23.228 26.9783 23.2626 26.9943C23.2972 27.0103 23.3279 27.0336 23.3527 27.0626C23.3775 27.0916 23.3958 27.1255 23.4063 27.1622C23.4168 27.1988 23.4194 27.2373 23.4137 27.275Z" fill="#FB8359"/>
<path d="M24.6859 31.374C24.6859 31.4193 24.6859 31.4659 24.6859 31.5154C24.5884 31.4687 24.5884 31.4235 24.6859 31.374Z" fill="#FC6F3B"/>
<path d="M31.0579 43.5302C30.747 43.5583 30.5858 43.4341 30.6226 43.1059C31.0226 43.1429 31.0226 42.8855 31.0579 42.5872C31.0933 42.289 30.8346 41.8805 31.2926 41.6953C31.3067 42.3171 31.4382 42.9548 31.0579 43.5302Z" fill="#49DB9D"/>
<path d="M30.7638 45.5084C30.7921 45.2669 30.6649 44.994 30.9051 44.8018C30.8839 45.038 30.9843 45.3049 30.7638 45.5084Z" fill="#49DB9D"/>
<path d="M30.8852 44.0962C30.6874 43.867 30.8598 43.836 31.0393 43.8135C31.0393 43.9082 31.0393 44.0015 31.0393 44.0962H30.8852Z" fill="#3DCBB0"/>
<path d="M30.8854 44.0947H31.0409C31.0409 44.1905 31.0409 44.2852 31.0409 44.3771L30.891 44.3687C30.884 44.2782 30.8854 44.1877 30.8854 44.0947Z" fill="#49DB9D"/>
<path d="M30.7413 45.7915C30.7259 45.7581 30.7131 45.7236 30.7031 45.6883C30.7031 45.6799 30.7356 45.6644 30.7526 45.6514C30.7498 45.694 30.7455 45.7405 30.7413 45.7915Z" fill="#49DB9D"/>
<path d="M31.2711 40.4006L31.1934 40.2861L31.2711 40.4006Z" fill="#49DB9D"/>
<path d="M16.3534 33.0698C16.2248 33.0132 16.2728 32.9595 16.3534 32.9072V33.0698Z" fill="#841EF0"/>
<path d="M32.884 36.0382C33.5046 34.5682 33.294 32.8127 34.4389 31.5151C34.4708 31.4679 34.5147 31.4299 34.5661 31.4051C34.6175 31.3802 34.6746 31.3694 34.7315 31.3738C34.8205 31.5151 34.9082 31.5278 34.9929 31.3738L35.0057 31.3653L35.1385 31.2338C36.6099 30.5568 38.1775 30.3956 39.7719 30.3857C39.1951 30.8437 38.4729 31.0091 37.824 31.3101C35.831 32.2374 34.3767 33.6961 33.2699 35.5506C33.1569 35.7259 33.1031 35.9478 32.884 36.0382Z" fill="#49DB9D"/>
<path d="M32.7427 36.267L32.884 36.0381C32.8699 36.1398 32.884 36.2487 32.7427 36.267Z" fill="#49DB9D"/>
<path d="M34.9859 31.374C34.9011 31.5323 34.8134 31.5154 34.7244 31.374H34.9859Z" fill="#3DCBB0"/>
<path d="M35.1314 31.2324L34.9985 31.3639L35.1314 31.2324Z" fill="#3DCBB0"/>
<path d="M27.6428 46.7693L27.7163 46.7158L27.6612 46.7894L27.6428 46.7693Z" fill="#2FACAD"/>
<path d="M27.6612 46.7892L27.5891 46.8417L27.6428 46.7695L27.6612 46.7892Z" fill="#2FACAD"/>
<path d="M15.1718 34.0595C15.1421 34.2305 15.0517 34.3421 14.899 34.3421C14.7958 34.348 14.6939 34.3158 14.6127 34.2518C14.5315 34.1877 14.4765 34.0962 14.458 33.9944C14.4541 33.9598 14.458 33.9248 14.4693 33.8918C14.4806 33.8589 14.4991 33.8288 14.5234 33.8039C14.5478 33.7791 14.5774 33.7599 14.6101 33.7479C14.6428 33.7358 14.6778 33.7312 14.7125 33.7344C14.8072 33.7542 14.8969 33.7933 14.9759 33.8492C15.0549 33.9051 15.1216 33.9767 15.1718 34.0595Z" fill="#6F13B4"/>
<path d="M20.5122 55.1602C20.5122 55.1602 13.5026 58.7168 10.909 62.6616C8.43363 66.426 7.92542 73.6584 7.92542 73.6584C7.92542 73.6584 5.93613 65.8035 8.69359 61.5887C11.5344 57.2468 20.5122 55.1602 20.5122 55.1602Z" fill="url(#paint2_linear_161_2)"/>
<path d="M13.5307 10.0938L13.5279 10.1404L13.4897 10.1135L13.5307 10.0938Z" fill="#FB8359"/>
<path d="M14.2063 18.4277L14.2247 18.4941L14.1865 18.4645L14.2063 18.4277Z" fill="#FB8359"/>
<path fill-rule="evenodd" clip-rule="evenodd" d="M9.15741 50.8172C9.19378 50.8119 9.23012 50.8073 9.26643 50.8027C9.23104 50.8069 9.19565 50.8119 9.16023 50.8168C7.93558 50.9788 6.76801 51.4337 5.75657 52.1429C4.56502 52.9809 3.43141 53.8728 2.64693 55.1309C2.76006 55.1073 2.86943 55.0682 2.97203 55.015C4.90991 53.658 7.11069 52.94 9.37931 52.3858C9.95379 52.246 10.5306 52.1147 11.1073 51.9837C12.5458 51.6569 13.9842 51.3302 15.3866 50.865C15.4273 50.8513 15.4799 50.846 15.5354 50.8404C15.7145 50.8228 15.9233 50.8017 15.8587 50.4837C16.05 50.1657 15.855 50.1904 15.6958 50.2105C15.6575 50.2154 15.6212 50.22 15.5929 50.2193C14.4397 50.2425 13.2959 50.1411 12.1515 50.0397C11.8217 50.0105 11.4918 49.9812 11.1617 49.9552C8.8634 49.7728 6.78699 50.3069 4.99896 51.8309C3.81674 52.8615 2.83115 54.0981 2.08981 55.4802C2.07826 55.4946 2.06874 55.5119 2.06177 55.5326C2.07107 55.515 2.08042 55.4974 2.08981 55.4802C2.13327 55.426 2.20536 55.4126 2.27744 55.3992C2.38037 55.3802 2.48329 55.3608 2.50277 55.2231C2.55365 55.189 2.59889 55.1538 2.64412 55.1186V55.1312C3.43142 53.8731 4.56502 52.9812 5.75375 52.1432C6.76523 51.434 7.93276 50.9791 9.15741 50.8172ZM11.1136 50.7027L11.1551 50.6971L11.1165 50.7024C11.089 50.7062 11.0616 50.7098 11.0341 50.7129C11.0607 50.7098 11.0872 50.7066 11.1136 50.7027Z" fill="url(#paint3_linear_161_2)"/>
<path d="M24.6859 31.374C24.6859 31.4192 24.6859 31.4659 24.6859 31.5154C24.5884 31.4687 24.5884 31.4235 24.6859 31.374Z" fill="#FB8359"/>
<path fill-rule="evenodd" clip-rule="evenodd" d="M30.1982 33.7955C30.6462 34.3483 30.8284 35.0097 31.0096 35.6679C31.0693 35.8845 31.1288 36.1007 31.1977 36.3127C31.8819 38.3662 32.2582 40.5095 32.3143 42.6732C32.4034 47.1965 30.4768 50.6722 26.9601 53.3887C24.0435 55.6429 20.7046 57.093 17.3627 58.544L17.2919 58.575C16.9571 58.7201 16.622 58.8648 16.2869 59.0091C12.8698 60.4831 9.45215 61.957 6.37567 64.1032C6.31211 64.1317 6.24433 64.1496 6.17496 64.1567C6.16799 64.0208 6.16387 63.8859 6.23803 63.7715C6.15947 63.8856 6.16641 64.0204 6.17341 64.1567L6.17366 64.1616L6.16834 64.1613C6.1481 64.2116 6.11239 64.2539 6.06637 64.2824C6.02084 64.3106 5.9676 64.3236 5.91426 64.3201L5.91359 64.3229L5.76377 64.4486C4.3107 65.7208 2.9043 67.031 1.92193 68.7229C1.72126 69.0697 1.53692 69.4257 1.34965 69.7877C1.25598 69.9683 1.16151 70.151 1.06395 70.3341C0.974806 70.2482 0.907324 70.1422 0.867028 70.025C0.826736 69.9077 0.814778 69.7827 0.832141 69.6602L0.952292 69.5187C0.987841 69.5208 1.02345 69.5158 1.05702 69.5039C1.0906 69.4919 1.12146 69.4736 1.1478 69.4496C1.17414 69.4257 1.19542 69.3968 1.21039 69.3644C1.22536 69.332 1.23373 69.2972 1.23499 69.2616C1.37633 68.3993 1.73959 67.619 2.13961 66.8584C3.08457 65.0123 4.45581 63.4176 6.13972 62.2067C6.3493 62.056 6.55144 61.8887 6.75239 61.7172C6.54725 61.8908 6.34056 62.0599 6.12563 62.2123C4.44327 63.4197 3.07215 65.0095 2.12551 66.8514C1.7255 67.612 1.35658 68.3919 1.22089 69.2542C1.21963 69.2898 1.21127 69.3246 1.1963 69.357C1.18133 69.3894 1.16005 69.4183 1.13371 69.4422C1.10737 69.4662 1.0765 69.4848 1.04293 69.4968C1.00935 69.5084 0.973739 69.5137 0.93819 69.5116C0.922644 67.8944 0.938194 66.2901 1.33114 64.6972C2.18912 61.2074 4.41109 58.9162 7.5575 57.3894C8.01507 57.1672 8.4738 56.9458 8.93669 56.7349L8.94782 56.713C8.4781 56.9267 8.01211 57.1514 7.54609 57.3771C4.39972 58.9035 2.1749 61.1933 1.31975 64.6845C0.928211 66.2778 0.911246 67.882 0.926796 69.4989L0.806655 69.6401C0.0631658 67.0577 -0.287377 64.4401 0.283666 61.7771C0.915489 58.8229 2.80389 56.8623 5.41176 55.5056C7.79813 54.2637 10.4165 53.582 13.0145 52.9056C13.2556 52.8426 13.4965 52.7799 13.7371 52.7169L13.8781 52.6796C16.9846 51.8595 20.0906 51.0398 22.9841 49.5929C23.0156 50.032 23.3124 50.1035 23.6085 50.1753C23.6738 50.1912 23.7391 50.207 23.8015 50.2268L23.8038 50.2257C23.7407 50.2056 23.6746 50.1898 23.6085 50.1739C23.3124 50.1021 23.0155 50.0303 22.984 49.5915L25.0802 48.2884L25.0804 48.2898L25.2315 48.181C25.247 48.181 25.2624 48.1806 25.2773 48.1799C25.2623 48.1806 25.2469 48.1803 25.2314 48.1799C25.2558 48.1292 25.2937 48.0863 25.3408 48.056C25.3879 48.0257 25.4425 48.0088 25.4986 48.0074C25.4859 48.0908 25.4471 48.1356 25.3948 48.1584C25.4474 48.1363 25.4858 48.0929 25.4986 48.0084C25.6662 48.0151 25.7866 48.1236 25.9081 48.2331C25.9258 48.2489 25.9434 48.2648 25.9612 48.2803L25.9717 48.2708C25.9527 48.2542 25.934 48.2373 25.9152 48.2204C25.7937 48.1109 25.6733 48.0025 25.5057 47.9958C25.8082 47.6046 26.1806 47.2729 26.604 47.0176L26.6053 47.0208L26.6167 47.0077C26.8187 47.0915 26.9786 47.1577 27.1089 47.2025L27.1211 47.1908C26.9899 47.1465 26.8284 47.0796 26.6239 46.9947L28.0077 45.2067C29.9425 41.9077 30.1673 38.3331 29.7122 34.6483C29.6944 34.5031 29.6808 34.3537 29.6674 34.2074C29.6617 34.1444 29.6559 34.082 29.65 34.0207L29.65 34.0133C29.6333 33.9993 29.6195 33.9822 29.6094 33.963C29.599 33.9431 29.5928 33.9214 29.5911 33.899C29.5894 33.8767 29.5922 33.8542 29.5994 33.833C29.6063 33.8127 29.6171 33.794 29.6312 33.7779L29.5977 33.4992L29.6073 33.5002C29.4243 33.1574 29.3906 32.785 29.3568 32.4103C29.3334 32.1518 29.3099 31.8922 29.2372 31.6406C29.6779 32.1282 29.9651 32.7349 30.0627 33.3848L30.0641 33.3881C30.1741 33.4277 30.1854 33.5113 30.1598 33.6096L30.1659 33.6237L30.1982 33.7955ZM29.0144 45.4123L29.0276 45.4C29.0062 45.3771 28.9843 45.3546 28.9623 45.332C28.8411 45.2074 28.72 45.0827 28.6959 44.9095C28.7371 44.8722 28.7767 44.8574 28.8147 44.8588C28.768 44.8479 28.7192 44.8588 28.6676 44.906C28.6918 45.0792 28.8131 45.2039 28.9344 45.3285C28.9614 45.3563 28.9884 45.3838 29.0144 45.4123ZM29.9112 44.8282L29.9104 44.8278C30.1125 44.5542 30.4551 44.3929 30.8906 44.3641L30.8909 44.3679L31.0182 44.3753V44.3834L31.0175 44.3863L30.884 44.3785C30.4544 44.406 30.115 44.5627 29.9112 44.8282ZM29.4282 45.0236L29.3605 45.087C29.3818 45.0567 29.4033 45.0165 29.4253 44.9651C29.5541 44.6627 29.3534 44.5577 29.0799 44.5194C29.3675 44.5546 29.5868 44.656 29.4535 44.969C29.445 44.9887 29.4366 45.007 29.4282 45.0236ZM29.283 45.1599L29.2682 45.1739C29.2584 45.1739 29.2486 45.1725 29.2389 45.1701C29.2535 45.1701 29.2682 45.1669 29.283 45.1599ZM26.5333 47.7429C26.5068 47.7271 26.4796 47.7155 26.4513 47.7102C26.4126 47.7032 26.3736 47.6877 26.3348 47.6722C26.2408 47.6341 26.1486 47.5972 26.0655 47.6863C26.0543 47.6982 26.0455 47.7102 26.0389 47.7218C26.0445 47.7144 26.051 47.7067 26.0584 47.6989C26.1533 47.5972 26.2392 47.6377 26.3277 47.6796C26.3658 47.6975 26.4043 47.7158 26.4443 47.7229C26.4711 47.7278 26.497 47.7387 26.5223 47.7535L26.5333 47.7429ZM29.7758 43.2461C29.9449 43.938 29.5658 44.2817 28.9175 44.5035L28.9018 44.5025L28.8839 44.5018C29.5355 44.2796 29.9172 43.9363 29.7475 43.2422L29.5228 43.1334L29.5807 43.0472L29.581 43.0475L29.5934 43.0602L29.5413 43.1377L29.766 43.2468L29.7759 43.2352L29.7718 43.231H30.0401C30.0825 42.6993 30.1267 42.1672 30.1708 41.6349C30.2224 41.013 30.2741 40.3908 30.3228 39.7694C30.3469 39.4676 30.454 39.4144 30.6742 39.5627C30.4575 39.4208 30.3551 39.4743 30.3313 39.7746C30.2647 40.6662 30.1896 41.5581 30.1146 42.45L30.1144 42.4525C30.0924 42.7137 30.0704 42.975 30.0487 43.2359L29.7857 43.2345L29.7758 43.2461ZM30.3369 43.1387C30.3108 43.2422 30.2873 43.3352 30.2172 43.3334C30.2808 43.3278 30.3034 43.238 30.3285 43.1391C30.3322 43.1246 30.3359 43.1099 30.3398 43.0951C30.3926 42.9042 30.4449 42.8391 30.4953 42.8623C30.4468 42.8465 30.3974 42.912 30.3482 43.0947C30.3443 43.1095 30.3406 43.1243 30.3369 43.1387ZM30.6308 43.1042L30.6307 43.1056C30.9964 43.1363 31.021 42.9155 31.0512 42.6451C31.0533 42.6257 31.0555 42.606 31.0579 42.5863C31.0606 42.5634 31.0615 42.5401 31.0613 42.5162C31.0615 42.5394 31.0605 42.5623 31.0578 42.5849C31.0556 42.6042 31.0534 42.6239 31.0513 42.6429C31.0211 42.9158 30.9968 43.1345 30.6308 43.1042ZM31.2713 41.7035C31.2368 41.7187 31.2066 41.7352 31.1803 41.7532C31.2066 41.7349 31.2367 41.7179 31.2713 41.7021L31.2713 41.7035ZM31.0182 43.8148L30.9996 43.8176L31.0182 43.8144V43.8148ZM31.0425 39.444L31.0383 39.4391L31.0349 39.4352C30.9983 39.6063 30.929 39.7264 30.752 39.6169C30.9339 39.7349 31.0028 39.6158 31.0425 39.444ZM30.755 45.1648C30.7552 45.2123 30.7591 45.2602 30.763 45.3081L30.7615 45.2863C30.7586 45.2458 30.7556 45.2049 30.755 45.1648ZM29.6435 33.9275C29.6395 33.8879 29.6354 33.8484 29.6338 33.8091C29.6355 33.8276 29.6374 33.8464 29.6393 33.865L29.6393 33.8653L29.6394 33.8657L29.6394 33.8662C29.6436 33.9062 29.6477 33.9464 29.6493 33.9869C29.6476 33.9672 29.6456 33.9473 29.6436 33.9277L29.6435 33.9275ZM29.9861 33.9482C29.9471 33.7479 29.9082 33.5482 29.6429 33.5054C29.9058 33.5517 29.9442 33.7521 29.9824 33.9518C30.0111 34.1016 30.0397 34.2511 30.1631 34.3345L30.1815 34.3628C30.1852 34.4116 30.1819 34.4621 30.1785 34.5127C30.1692 34.6537 30.1598 34.7948 30.3044 34.8999L30.3228 34.9282L30.3313 35.3408C30.366 35.4725 30.4028 35.6035 30.4395 35.7349L30.4396 35.7352L30.4401 35.7366L30.4402 35.737C30.5977 36.2986 30.7553 36.8606 30.7553 37.4514L30.7535 37.5433C30.7407 38.1817 30.7279 38.819 31.0325 39.4095L31.0336 39.3947C30.7417 38.8141 30.7519 38.1877 30.7621 37.5588L30.7638 37.4503C30.7547 36.8644 30.6022 36.3074 30.4495 35.7493C30.4123 35.6134 30.375 35.4771 30.3399 35.3408L30.3384 35.3419L30.3299 34.9293C30.4802 35.0228 30.4987 35.1193 30.4432 35.2176C30.5004 35.1178 30.4827 35.0198 30.3312 34.9275L30.3129 34.8992C30.3129 34.8658 30.3159 34.8317 30.3197 34.7975C30.3156 34.8323 30.3121 34.867 30.3116 34.9011C30.1642 34.7993 30.1743 34.652 30.1844 34.5066C30.1878 34.4583 30.1911 34.4102 30.1886 34.364C30.3114 34.4427 30.3365 34.5416 30.3341 34.6464C30.3374 34.5396 30.3139 34.4392 30.1899 34.3621L30.1729 34.3361C30.0451 34.2517 30.0156 34.0998 29.9861 33.9482ZM28.4568 45.8359L28.4515 45.8454C28.4505 45.8475 28.4494 45.8493 28.4484 45.851L28.4568 45.8359ZM7.65077 61.8183C7.63056 61.8901 7.66264 61.9856 7.78926 62.1264C7.84753 62.1912 7.85715 62.2422 7.83898 62.2873C7.85951 62.2412 7.85099 62.1884 7.79056 62.1211C7.66683 61.9838 7.63338 61.8894 7.65077 61.8183ZM16.3534 33.0689C16.2248 33.0124 16.2729 32.9587 16.3534 32.9064V33.0689ZM26.691 44.5475C26.6802 44.6313 26.6413 44.6901 26.5418 44.694C26.5862 44.6429 26.6318 44.5933 26.6776 44.544C26.6795 44.4408 26.7481 44.3954 26.8401 44.3732C26.836 44.4746 26.793 44.5387 26.691 44.5475ZM2.07028 55.5324L2.0334 55.5947L1.89501 55.7866L1.91339 55.7982L2.0334 55.5947L2.07028 55.5437V55.5324Z" fill="url(#paint4_linear_161_2)"/>
<path fill-rule="evenodd" clip-rule="evenodd" d="M26.119 26.709C26.1634 26.7401 26.1979 26.7832 26.2184 26.8333C26.239 26.8834 26.2447 26.9384 26.2349 26.9917L26.2688 27.157L26.249 27.1967L26.2488 27.2031C26.6551 27.7666 26.8528 28.4153 27.0503 29.0635C27.1102 29.2601 27.1701 29.4566 27.2357 29.6506C28.1432 32.3744 28.8118 35.1462 28.7708 38.0454C28.7708 38.2014 28.7509 38.3577 28.731 38.5137C28.7213 38.5894 28.7117 38.6651 28.7043 38.7408C28.645 38.7444 28.5818 38.8194 28.5186 38.8944C28.4057 39.0285 28.2924 39.163 28.1998 38.8937C28.2908 39.1743 28.4064 39.0384 28.5216 38.9028C28.5855 38.8278 28.6492 38.7528 28.7085 38.7493C28.6817 40.8243 27.9777 42.6771 26.8413 44.3845C26.7494 44.407 26.6835 44.4525 26.6789 44.5553C26.6377 44.6 26.5967 44.6447 26.5564 44.6905L26.5671 44.688L26.5585 44.7056H26.5685L26.5574 44.7077C26.1475 45.5239 25.4548 46.0919 24.7635 46.6317C23.386 47.7081 21.84 48.5496 20.1881 49.1222C20.119 49.1465 20.0475 49.1641 19.9653 49.1842C19.9231 49.1944 19.8779 49.2053 19.8291 49.2183C19.9838 49.0518 20.1391 48.8915 20.2924 48.7334L20.2931 48.7327L20.2938 48.732L20.2941 48.7317C20.6161 48.3993 20.9289 48.0768 21.2072 47.7257C22.7112 45.8289 22.878 43.6422 22.4793 41.3651C21.963 38.4239 20.783 35.7137 19.6022 33.0018C19.5063 32.7814 19.4102 32.5606 19.3146 32.34C19.067 31.7721 18.8132 31.207 18.5594 30.6421C17.8539 29.0715 17.1487 27.5017 16.5811 25.8739C15.5563 23.5007 14.7165 21.068 14.2331 18.5237C14.2554 18.5417 14.2813 18.5583 14.3073 18.5751C14.3654 18.6125 14.4238 18.6501 14.4423 18.7018C14.6232 19.2149 14.8381 19.581 15.4473 19.1386C15.5957 19.0298 15.8713 19.0354 15.8925 19.2899C15.936 19.8637 16.2154 20.3274 16.4953 20.7921C16.6705 21.0829 16.8459 21.374 16.9639 21.6927C17.1953 22.3145 17.4689 22.9198 17.7424 23.5252C17.9701 24.0292 18.1979 24.5332 18.4014 25.0469C18.9465 26.4249 19.6597 27.7103 20.3738 28.9973C20.5856 29.379 20.7975 29.7609 21.0051 30.1453C21.21 30.5242 21.5493 30.4676 21.6341 30.1736C21.801 29.5899 21.9761 29.7417 22.2881 30.0123L22.3111 30.0323C22.3815 30.0906 22.4578 30.1403 22.5339 30.19C22.7067 30.3027 22.8786 30.4149 22.9797 30.6259C23.1083 30.8973 23.3345 30.8549 23.4801 30.6443C23.9493 29.963 24.1175 30.3842 24.2603 30.8506C24.2717 30.9197 24.3072 30.9824 24.3605 31.0277C24.4138 31.073 24.4815 31.0979 24.5515 31.098L24.6195 31.2341L24.5515 31.0909C24.4816 31.0909 24.414 31.0659 24.3607 31.0206C24.3074 30.9753 24.2718 30.9126 24.2605 30.8435C24.1191 30.3771 23.9495 29.9558 23.4802 30.6371C23.3389 30.8478 23.1085 30.8902 22.9799 30.6188C22.8818 30.4079 22.7089 30.2957 22.5352 30.1831C22.4586 30.1334 22.3818 30.0835 22.3113 30.0251L22.2714 29.9921C21.9699 29.7415 21.7982 29.5988 21.6342 30.1665C21.5494 30.4605 21.2102 30.517 21.0052 30.1382C20.7922 29.743 20.5742 29.3506 20.3563 28.9582C19.6474 27.6819 18.9389 26.4062 18.4016 25.0398C18.1981 24.5247 17.9695 24.0193 17.7408 23.514C17.4675 22.9099 17.1942 22.3059 16.9641 21.6856C16.8465 21.369 16.6719 21.0795 16.4973 20.79C16.2167 20.3247 15.9363 19.8595 15.8927 19.2827C15.8729 19.0283 15.5958 19.0226 15.4474 19.1315C14.8382 19.5739 14.6234 19.2078 14.4425 18.6947C14.4245 18.6446 14.3675 18.6079 14.3113 18.5717C14.2834 18.5537 14.2558 18.5358 14.2333 18.5166L14.2248 18.4883L14.2064 18.4219C13.5775 16.1542 13.3305 13.7975 13.4755 11.4486C13.401 11.1455 13.4419 10.8471 13.4827 10.5488C13.5015 10.4117 13.5203 10.2745 13.5278 10.137V10.0904C13.5806 8.48035 13.8764 6.88757 14.4053 5.36599C14.377 5.25563 14.3827 5.1393 14.4217 5.03225C14.4607 4.92496 14.5313 4.83201 14.6242 4.7656L14.6247 4.76299C14.6935 4.54342 14.7637 4.32433 14.8353 4.1057C15.2139 3.93549 15.3025 3.60296 15.3911 3.26994C15.4401 3.08581 15.4891 2.90156 15.5872 2.74454C15.6093 2.70956 15.6271 2.67192 15.6432 2.63284C15.6278 2.66955 15.6108 2.70491 15.59 2.7379C15.4879 2.89721 15.4382 3.08455 15.3886 3.27134C15.3009 3.60165 15.2137 3.93025 14.8381 4.09908C15.0762 2.80948 15.7256 1.7155 16.3774 0.617694C16.4992 0.412384 16.6212 0.206883 16.7406 0C16.2402 3.46301 17.4289 6.53592 18.6375 9.63282C19.6038 12.1098 20.7401 14.5037 21.875 16.8948L22.051 17.2656C23.3938 20.101 24.6914 22.9534 25.8193 25.8807C25.8203 25.8875 25.8212 25.8944 25.8218 25.9013C25.9677 26.0372 25.9684 26.214 25.969 26.391L25.9691 26.4091L25.9712 26.4103C25.9706 26.4165 25.9701 26.4227 25.9698 26.4289C26.0163 26.4576 26.0546 26.4981 26.0808 26.5462C26.1079 26.5959 26.1211 26.6524 26.119 26.709ZM25.2228 28.1776C25.886 28.3291 26.1077 28.3131 26.195 27.8379C26.1086 28.316 25.8836 28.3324 25.2201 28.1806C25.1745 28.1769 25.1287 28.1851 25.0873 28.2046C24.6717 28.3559 24.4271 28.1962 24.1445 27.8612C24.1288 27.8423 24.1129 27.8229 24.0968 27.8031C23.9251 27.5929 23.7239 27.3464 23.4138 27.2858V27.2826C23.7261 27.3427 23.9278 27.5898 24.0997 27.8003C24.1158 27.82 24.1316 27.8393 24.1472 27.8582C24.4242 28.1932 24.6744 28.3529 25.09 28.2017C25.1314 28.1821 25.1772 28.1738 25.2228 28.1776ZM24.1094 29.4433C24.3027 29.972 24.47 30.5089 24.5494 31.0748C24.4734 30.5092 24.3053 29.9718 24.1094 29.4433ZM28.1531 38.7123L28.1549 38.7215C27.9733 38.7782 27.7809 38.7968 27.5918 38.8151C27.4004 38.8338 27.2123 38.8521 27.042 38.9088C26.6406 39.043 26.4245 38.9803 26.3008 38.8229C26.4251 38.9768 26.6409 39.0356 27.0379 38.9003C27.2081 38.8437 27.3962 38.8253 27.5875 38.8067C27.7775 38.7884 27.9707 38.7694 28.1531 38.7123ZM24.6858 31.515L24.6886 31.52C24.5962 31.4752 24.5953 31.4317 24.6858 31.3843V31.515ZM15.7131 2.45157C15.7599 2.33948 15.824 2.23028 15.9604 2.14947C16.1113 2.41198 16.0416 2.64612 15.9748 2.87062C15.9427 2.97854 15.9113 3.08424 15.9053 3.18978C15.8568 4.0307 15.7752 4.87018 15.6934 5.7118C15.6607 6.04856 15.6278 6.38581 15.5971 6.72349C15.5945 6.75109 15.588 6.78253 15.5814 6.81408C15.5667 6.88415 15.5519 6.95475 15.5802 6.98496C16.1128 7.55313 16.1888 8.25134 16.2649 8.95049C16.3067 9.33496 16.3486 9.71972 16.4664 10.0833C16.6583 10.6764 16.8402 11.2729 17.0221 11.8694C17.5264 13.5231 18.0307 15.1767 18.7464 16.7577C19.0655 17.4617 19.3617 18.1778 19.6539 18.8955C19.3616 18.1761 19.0661 17.4582 18.7492 16.7511C18.0358 15.1722 17.5333 13.5258 17.0305 11.8787C16.8469 11.277 16.6632 10.6753 16.4692 10.0767C16.3513 9.71306 16.3095 9.32831 16.2676 8.94384C16.1915 8.24468 16.1156 7.54648 15.583 6.97831C15.5547 6.9481 15.5694 6.87753 15.5841 6.80743C15.5907 6.77588 15.5973 6.74447 15.5999 6.71683C15.63 6.38775 15.662 6.05877 15.6941 5.72972C15.7766 4.88278 15.8592 4.03518 15.9081 3.18314C15.914 3.07759 15.9459 2.97189 15.9785 2.86395C16.0462 2.63946 16.1169 2.40533 15.9632 2.14283C15.824 2.22524 15.7602 2.33716 15.7131 2.45157ZM15.5836 17.2479C15.2946 16.5036 15.0055 15.7589 14.7691 14.9948C15.0073 15.7702 15.3008 16.5257 15.5943 17.2811C15.8205 17.8633 16.0467 18.4455 16.2475 19.0366C16.0442 18.4343 15.8139 17.8412 15.5836 17.2479ZM13.6479 12.5827C13.6514 12.5093 13.6584 12.4346 13.6653 12.36C13.6723 12.2853 13.6793 12.2107 13.6827 12.1375C13.6793 12.2099 13.6724 12.2837 13.6655 12.3577C13.6584 12.4331 13.6513 12.5085 13.6479 12.5827ZM23.4089 27.2746L23.4088 27.275C23.3708 27.2783 23.3325 27.2729 23.2969 27.259C23.2598 27.2445 23.2267 27.2214 23.2003 27.1915C23.174 27.1615 23.1553 27.1257 23.1457 27.087C23.1363 27.0493 23.1359 27.0098 23.1446 26.9719L23.1464 26.9762C23.1478 26.9762 23.1492 26.9762 23.1505 26.9762C23.1432 27.0121 23.1438 27.0492 23.1525 27.0849C23.1617 27.123 23.1798 27.1583 23.2053 27.1881C23.2308 27.2178 23.2629 27.2411 23.2991 27.2561C23.3339 27.2705 23.3714 27.2768 23.4089 27.2746ZM24.912 44.2327C24.9024 44.0986 24.9196 43.9398 24.9628 43.7542C25.0448 43.4035 25.1359 43.0549 25.2269 42.7063C25.5142 41.6067 25.8013 40.5077 25.8024 39.3444C25.8024 39.2482 25.7998 39.1616 25.7931 39.0834C25.7988 39.157 25.801 39.238 25.801 39.3268C25.801 40.4894 25.5138 41.5877 25.2263 42.6866C25.135 43.0359 25.0436 43.3852 24.9614 43.737C24.9163 43.9303 24.8996 44.0951 24.912 44.2327ZM18.6063 27.1914C18.6169 27.251 18.6412 27.3125 18.6658 27.3679C18.6867 27.4149 18.7183 27.4615 18.7511 27.5097C18.8099 27.5962 18.8724 27.6882 18.883 27.7985C18.8784 27.6846 18.8178 27.5953 18.757 27.5057C18.7229 27.4556 18.6888 27.4053 18.6644 27.3505C18.6406 27.297 18.6186 27.2429 18.6063 27.1914Z" fill="url(#paint5_linear_161_2)"/>
<path d="M25.9714 26.4104L25.9722 26.4023V26.4108L25.9714 26.4104Z" fill="url(#paint6_linear_161_2)"/>
<path d="M26.6791 44.5556L26.6943 44.5391L26.679 44.5602L26.6791 44.5556Z" fill="url(#paint7_linear_161_2)"/>
<path fill-rule="evenodd" clip-rule="evenodd" d="M39.7704 30.3828L40.6581 30.3743C40.4982 30.2001 40.294 30.1747 40.0912 30.1494C39.9961 30.1376 39.9011 30.1258 39.8113 30.0987C39.6278 30.0498 39.4405 30.0237 39.2525 29.9976C38.957 29.9566 38.6602 29.9154 38.3753 29.7849C35.6954 28.5608 32.9885 29.2535 31.2146 31.5913C31.2071 31.6014 31.1995 31.6114 31.1921 31.6213C31.0707 31.7821 30.9648 31.9224 31.0846 32.1567C31.2814 32.5422 31.4624 32.9357 31.6434 33.3293C31.7156 33.4864 31.7879 33.6436 31.8612 33.8003L31.8565 33.8058C32.1175 34.6341 32.3771 35.4632 32.6353 36.2935L32.6395 36.2921L32.6452 36.3189C32.8906 37.4889 33.1356 38.6562 33.3109 39.8555C33.3937 39.5784 33.4654 39.2995 33.537 39.0213C33.7259 38.2868 33.9139 37.5562 34.3003 36.8675C35.2518 35.1712 36.5577 33.8228 38.0106 32.5888C38.3901 32.2668 38.8021 31.9869 39.2141 31.7068C39.7641 31.3328 40.3144 30.9587 40.788 30.4843L40.8859 30.4448L40.6665 30.384L40.7827 30.4798L40.668 30.3894L40.6539 30.3795L39.7683 30.388L39.7718 30.385C38.1775 30.3949 36.6099 30.5561 35.1385 31.2331L35.0056 31.3646L34.9929 31.3731C34.9589 31.4349 34.9244 31.4699 34.8895 31.4805C34.922 31.4677 34.9541 31.433 34.9859 31.3737H34.7318L34.7314 31.3731C34.6745 31.3687 34.6175 31.3795 34.5661 31.4044C34.5147 31.4292 34.4708 31.4671 34.4388 31.5144C33.7294 32.3185 33.5404 33.2984 33.3516 34.2773C33.2359 34.8776 33.1202 35.4777 32.8845 36.0365L32.8812 36.0375V36.0418L32.7427 36.2664L32.7399 36.2668L32.7361 36.2675L32.877 36.0393C33.1145 35.4763 33.2309 34.8733 33.3472 34.2709C33.5362 33.292 33.7248 32.3149 34.4318 31.516C34.125 31.5662 33.8601 31.6789 33.6253 31.8406C33.8615 31.6769 34.1281 31.5627 34.4374 31.5122C34.4694 31.4649 34.5132 31.4269 34.5646 31.4021C34.616 31.3773 34.6731 31.3665 34.73 31.3708H34.9914L35.0042 31.3624L35.137 31.2309C36.6084 30.551 38.176 30.3899 39.7704 30.3828ZM32.829 36.2316C32.8758 36.1921 32.8807 36.1263 32.8812 36.0604C32.8804 36.0678 32.8797 36.0749 32.879 36.0823L32.8789 36.0833C32.8733 36.1411 32.868 36.1967 32.829 36.2316ZM38.462 31.0482C38.7095 30.9533 38.9577 30.8583 39.1951 30.7418C38.9556 30.8598 38.7056 30.9557 38.4556 31.0514C38.2405 31.1339 38.0257 31.2162 37.8187 31.3124C37.6535 31.3893 37.4919 31.4698 37.3341 31.5538C37.4937 31.4687 37.657 31.3872 37.8239 31.3095C38.0317 31.2131 38.2468 31.1307 38.462 31.0482ZM33.1888 35.6949C33.2033 35.6671 33.2178 35.6389 33.2331 35.6115C33.2232 35.6312 33.2135 35.6509 33.2038 35.6706C33.1365 35.8083 33.0677 35.9492 32.9178 36.022C33.0558 35.9509 33.1222 35.8231 33.1888 35.6949Z" fill="url(#paint8_linear_161_2)"/>
<path fill-rule="evenodd" clip-rule="evenodd" d="M14.0667 34.1664C14.1273 34.3144 14.1866 34.459 14.3647 34.5123C14.3577 34.5241 14.3532 34.5372 14.3514 34.5508C14.3495 34.5658 14.3511 34.5812 14.3559 34.5955L14.3492 34.5915C14.2335 34.7985 14.3346 34.9577 14.4317 35.1104C14.4639 35.161 14.4956 35.2108 14.5188 35.2616C14.5903 35.4154 14.6619 35.5693 14.7334 35.7232C15.6072 37.6028 16.4804 39.4809 17.1846 41.4327C17.9818 43.6404 18.4652 45.8922 18.061 48.2584C18.0564 48.2855 18.0465 48.3158 18.0362 48.3471C18.002 48.4514 17.9638 48.5679 18.1062 48.6204C18.1472 48.6359 18.2173 48.5725 18.287 48.5095C18.3181 48.4813 18.3492 48.4531 18.3776 48.4323C18.3099 48.0823 18.4468 47.7876 18.5835 47.4933C18.6522 47.3454 18.7209 47.1975 18.7635 47.0429C19.4758 44.4704 18.7295 42.0957 17.7656 39.7718C17.2514 38.5309 16.6799 37.3133 16.1085 36.0957C15.8522 35.55 15.596 35.0038 15.3449 34.4557L15.3457 34.4553C15.421 34.3706 15.4636 34.2623 15.4666 34.1497C15.4638 34.2618 15.4218 34.3697 15.3471 34.4543C15.5983 35.0028 15.8548 35.5492 16.1112 36.0954C16.6826 37.313 17.2542 38.5309 17.7683 39.7718C18.7324 42.0957 19.473 44.4704 18.7663 47.0426C18.7237 47.1975 18.655 47.3454 18.5863 47.4933C18.4496 47.7876 18.3127 48.0823 18.3804 48.4323C19.7444 47.6052 20.5133 46.3672 20.8512 44.8376C21.1974 43.2517 20.8921 41.7098 20.5685 40.1549L20.5655 40.1591C20.413 38.7799 19.8993 37.5049 19.3901 36.2408C19.3131 36.0496 19.2362 35.8588 19.1607 35.6676C18.4494 33.8692 17.6888 32.0908 16.9282 30.3124C16.4072 29.0941 15.8862 27.8757 15.3811 26.6511C14.1089 23.5414 12.9428 20.388 12.2714 17.079C12.0512 15.9962 11.9007 14.9022 11.7484 13.794C11.713 13.5366 11.6775 13.2785 11.641 13.0195C11.5232 13.6309 11.405 14.2432 11.2863 14.8565C11.2469 15.2155 11.2028 15.5741 11.1588 15.9329C11.0574 16.7591 10.956 17.5853 10.9116 18.4141C10.7976 20.302 10.7775 22.1941 11.1307 24.0666L11.1294 24.0913C11.1142 24.2567 11.1142 24.4233 11.1294 24.5888C11.7004 27.8635 12.6761 31.0546 14.0341 34.0888C14.0454 34.1145 14.0561 34.1405 14.0667 34.1664ZM11.3642 14.9247C11.49 15.0472 11.5625 15.1853 11.6036 15.3313C11.5629 15.1848 11.4903 15.0466 11.3642 14.9247ZM16.3493 32.9104C16.2717 32.9599 16.2312 33.0107 16.3493 33.0639V32.9104ZM15.0691 33.6189C15.1029 33.6623 15.1367 33.7057 15.1791 33.7382C15.1349 33.7056 15.1 33.661 15.0652 33.6165C15.023 33.5624 14.9807 33.5084 14.9217 33.4758H14.921C14.9538 33.2273 14.8212 33.0575 14.6871 32.8858C14.6064 32.7826 14.5253 32.6787 14.4793 32.5566C14.3166 32.1276 14.148 31.7009 13.9794 31.2744C13.5359 30.1519 13.0926 29.0299 12.7577 27.8695C12.6827 27.6054 12.6057 27.4282 12.4895 27.3804C12.6088 27.425 12.6871 27.6022 12.7633 27.8675C13.0931 29.0103 13.5302 30.1172 13.9667 31.2225C14.1419 31.666 14.3169 32.1093 14.4849 32.5545C14.531 32.6768 14.6123 32.7808 14.693 32.8841C14.8279 33.0567 14.9613 33.2273 14.9259 33.4775C14.9847 33.5106 15.0269 33.5647 15.0691 33.6189ZM14.3656 34.5107C14.255 34.1327 14.1711 33.7609 14.4427 33.5854C14.1772 33.7627 14.2654 34.1303 14.3676 34.5076L14.3656 34.5107ZM11.159 23.6385C11.273 24.3196 11.445 24.9862 11.618 25.6568C11.7816 26.2912 11.9462 26.9293 12.0637 27.5868L12.0687 27.5817C11.9513 26.9253 11.787 26.2882 11.6236 25.6548C11.4485 24.9759 11.2744 24.3013 11.1604 23.6115L11.159 23.6385ZM20.5332 40.2133C20.4561 40.3542 20.4445 40.5158 20.4328 40.6781C20.4283 40.7401 20.4238 40.8021 20.4157 40.863C20.4249 40.7996 20.43 40.7348 20.4351 40.6704C20.4477 40.5112 20.4602 40.3524 20.5332 40.2133ZM20.1534 41.3704C20.1402 41.3982 20.1321 41.432 20.1239 41.4662C20.1161 41.4992 20.1081 41.5323 20.0955 41.5616C20.1098 41.5309 20.1183 41.4954 20.1267 41.4602C20.1343 41.4281 20.1419 41.3968 20.1534 41.3704ZM15.1733 34.0595C15.1237 33.9757 15.0572 33.9031 14.9782 33.8462C14.8991 33.7892 14.8092 33.7493 14.7139 33.7288C14.6792 33.7256 14.6443 33.7302 14.6116 33.7422C14.5789 33.7543 14.5493 33.7735 14.5249 33.7984C14.5006 33.8233 14.482 33.8533 14.4707 33.8862C14.4692 33.8907 14.4678 33.8952 14.4665 33.8998C14.4674 33.897 14.4683 33.8942 14.4692 33.8914C14.4806 33.8584 14.4991 33.8284 14.5234 33.8035C14.5478 33.7786 14.5774 33.7595 14.6101 33.7474C14.6428 33.7354 14.6777 33.7308 14.7124 33.7339C14.8072 33.7538 14.8969 33.7929 14.9759 33.8488C15.0549 33.9047 15.1216 33.9763 15.1718 34.059C15.1564 34.1475 15.1248 34.2201 15.0768 34.2695C15.1248 34.2209 15.1565 34.1482 15.1719 34.0595H15.1733Z" fill="url(#paint9_linear_161_2)"/>
</g>
<defs>
<linearGradient id="paint0_linear_161_2" x1="31.7523" y1="65.8298" x2="104.596" y2="65.8298" gradientUnits="userSpaceOnUse">
<stop stop-color="#FF9A00"/>
<stop offset="0.382488" stop-color="#FC5E46"/>
<stop offset="0.70625" stop-color="#841EF0"/>
<stop offset="0.979231" stop-color="#2FACAD"/>
</linearGradient>
<linearGradient id="paint1_linear_161_2" x1="6.53729" y1="88.4815" x2="109.265" y2="88.4815" gradientUnits="userSpaceOnUse">
<stop stop-color="#FDA31A"/>
<stop offset="0.382488" stop-color="#FC5E46"/>
<stop offset="0.70625" stop-color="#841EF0"/>
<stop offset="0.979231" stop-color="#2FACAD"/>
</linearGradient>
<linearGradient id="paint2_linear_161_2" x1="22.7947" y1="60.0573" x2="5.37113" y2="68.1785" gradientUnits="userSpaceOnUse">
<stop stop-color="#2FACAD"/>
<stop offset="1" stop-color="#2FACAD"/>
</linearGradient>
<linearGradient id="paint3_linear_161_2" x1="8.99988" y1="49.9207" x2="8.99988" y2="55.5326" gradientUnits="userSpaceOnUse">
<stop stop-color="#49DB9D"/>
<stop offset="1" stop-color="#2FACAD"/>
</linearGradient>
<linearGradient id="paint4_linear_161_2" x1="16.1587" y1="31.6406" x2="16.1587" y2="70.3341" gradientUnits="userSpaceOnUse">
<stop stop-color="#2FACAD"/>
<stop offset="1" stop-color="#8EE99F"/>
</linearGradient>
<linearGradient id="paint5_linear_161_2" x1="21.1033" y1="0" x2="21.1033" y2="49.2183" gradientUnits="userSpaceOnUse">
<stop stop-color="#FBCB43"/>
<stop offset="0.515882" stop-color="#FC6F3B"/>
<stop offset="1" stop-color="#E02A67"/>
</linearGradient>
<linearGradient id="paint6_linear_161_2" x1="21.112" y1="0.000432837" x2="21.112" y2="49.218" gradientUnits="userSpaceOnUse">
<stop stop-color="#FBCB43"/>
<stop offset="0.515882" stop-color="#FC6F3B"/>
<stop offset="1" stop-color="#E02A67"/>
</linearGradient>
<linearGradient id="paint7_linear_161_2" x1="21.1031" y1="-0.00567194" x2="21.1031" y2="49.2193" gradientUnits="userSpaceOnUse">
<stop stop-color="#FBCB43"/>
<stop offset="0.515882" stop-color="#FC6F3B"/>
<stop offset="1" stop-color="#E02A67"/>
</linearGradient>
<linearGradient id="paint8_linear_161_2" x1="35.9588" y1="29.1894" x2="35.9588" y2="39.8555" gradientUnits="userSpaceOnUse">
<stop stop-color="#2FACAD"/>
<stop offset="1" stop-color="#8EE99F"/>
</linearGradient>
<linearGradient id="paint9_linear_161_2" x1="15.921" y1="13.0195" x2="15.921" y2="48.6225" gradientUnits="userSpaceOnUse">
<stop stop-color="#B86CE9"/>
<stop offset="0.508333" stop-color="#841EF0"/>
<stop offset="1" stop-color="#6F13B4"/>
</linearGradient>
<clipPath id="clip0_161_2">
<rect width="109.507" height="100" fill="white"/>
</clipPath>
</defs>
</svg>
